<svg width="33" height="32" viewBox="0 0 33 32" fill="none" xmlns="http://www.w3.org/2000/svg">
<path fill-rule="evenodd" clip-rule="evenodd" d="M11.1666 2.37354C11.7557 2.37354 12.2333 2.8511 12.2333 3.4402V4.37354H20.7666V3.4402C20.7666 2.8511 21.2442 2.37354 21.8333 2.37354C22.4224 2.37354 22.8999 2.8511 22.8999 3.4402V4.37354H28.4999C29.089 4.37354 29.5666 4.8511 29.5666 5.4402V25.6402C29.5666 27.8493 27.7757 29.6402 25.5666 29.6402H7.43326C5.22412 29.6402 3.43326 27.8493 3.43326 25.6402V5.4402C3.43326 4.8511 3.91082 4.37354 4.49992 4.37354H10.0999V3.4402C10.0999 2.8511 10.5775 2.37354 11.1666 2.37354ZM20.7666 6.50687V7.4402C20.7666 8.02931 21.2442 8.50687 21.8333 8.50687C22.4224 8.50687 22.8999 8.02931 22.8999 7.4402V6.50687H27.4333V9.70687H5.56659V6.50687H10.0999V7.4402C10.0999 8.02931 10.5775 8.50687 11.1666 8.50687C11.7557 8.50687 12.2333 8.02931 12.2333 7.4402V6.50687H20.7666ZM20.3222 22.818C19.7331 22.818 19.2555 23.2956 19.2555 23.8847C19.2555 24.4738 19.7331 24.9514 20.3222 24.9514H23.8777C24.4668 24.9514 24.9444 24.4738 24.9444 23.8847C24.9444 23.2956 24.4668 22.818 23.8777 22.818H20.3222Z" fill="#C2C2C2"/>
</svg>
