<svg width="375" height="429" viewBox="0 0 375 429" fill="none" xmlns="http://www.w3.org/2000/svg">
<path d="M168.517 16.472C168.133 16.472 167.957 16.344 167.957 16.056C167.957 15.8 168.117 15.656 168.469 15.656H172.821C172.997 15.656 173.141 15.72 173.269 15.832C173.381 15.96 173.397 16.152 173.333 16.408C172.389 18.984 170.869 20.984 168.789 22.408C168.565 22.552 168.405 22.552 168.293 22.408C168.165 22.28 168.197 22.136 168.389 21.944C169.397 20.984 170.261 19.928 170.965 18.808H168.373C168.037 18.808 167.877 18.68 167.877 18.392C167.877 18.136 168.021 17.992 168.341 17.992H171.445C171.701 17.512 171.941 17 172.165 16.472H168.517ZM174.181 14.568H175.573C175.973 14.568 176.181 14.792 176.181 15.24V17.624H178.661V15.4C178.661 15.08 178.581 14.856 178.421 14.728C178.245 14.616 178.005 14.536 177.701 14.472C177.477 14.44 177.333 14.392 177.269 14.344C177.189 14.312 177.157 14.248 177.157 14.168C177.157 13.992 177.301 13.896 177.621 13.896H179.045C179.461 13.896 179.669 14.12 179.669 14.552V20.424C179.669 21.384 179.397 21.864 178.869 21.864H178.661V18.424H176.181V20.264C176.181 21.224 175.909 21.704 175.397 21.704H175.189V16.056C175.189 15.752 175.109 15.544 174.949 15.416C174.789 15.32 174.549 15.224 174.261 15.144C174.037 15.096 173.909 15.048 173.845 14.984C173.765 14.952 173.733 14.888 173.733 14.808C173.733 14.648 173.877 14.568 174.181 14.568ZM172.149 25.176H178.293V23.416H172.613C172.229 23.416 172.053 23.288 172.053 23C172.053 22.744 172.213 22.6 172.565 22.6H178.693C179.077 22.6 179.285 22.824 179.285 23.24V25.208C179.285 25.72 179.045 25.976 178.565 25.976H173.557V27.288C173.557 27.608 173.685 27.768 173.973 27.768H179.253C179.621 27.768 179.813 27.896 179.813 28.168C179.813 28.44 179.621 28.584 179.269 28.584H173.461C172.853 28.584 172.565 28.232 172.565 27.56V26.424C172.565 26.024 172.341 25.784 171.925 25.704C171.861 25.704 171.797 25.672 171.765 25.624C171.701 25.592 171.685 25.528 171.685 25.432C171.685 25.272 171.829 25.176 172.149 25.176ZM182.047 18.552H187.103V16.2H182.415C182.031 16.2 181.855 16.072 181.855 15.784C181.855 15.528 182.015 15.384 182.367 15.384H187.487C187.887 15.384 188.095 15.608 188.095 16.024V18.568C188.095 19.08 187.839 19.336 187.359 19.336H183.471V21.304C183.471 21.624 183.599 21.768 183.887 21.768H188.719C189.087 21.768 189.279 21.912 189.279 22.168C189.279 22.456 189.087 22.584 188.735 22.584H183.343C182.751 22.584 182.463 22.248 182.463 21.56V19.8C182.463 19.416 182.239 19.192 181.823 19.096C181.663 19.064 181.583 18.968 181.583 18.808C181.583 18.648 181.727 18.552 182.047 18.552ZM191.823 15.4C191.823 15.096 191.727 14.872 191.567 14.744C191.375 14.632 191.167 14.552 190.927 14.488C190.671 14.44 190.495 14.392 190.431 14.344C190.351 14.312 190.319 14.248 190.319 14.168C190.319 13.992 190.463 13.896 190.767 13.896H192.207C192.623 13.896 192.831 14.12 192.831 14.552V23.592C192.831 24.552 192.575 25.032 192.063 25.032H191.823V15.4ZM192.991 28.36H187.359C186.319 28.36 185.807 27.896 185.807 27V25.656C185.807 25.368 185.727 25.16 185.567 25.032C185.391 24.936 185.183 24.84 184.943 24.776C184.703 24.712 184.559 24.664 184.511 24.616C184.447 24.584 184.415 24.52 184.415 24.424C184.415 24.248 184.559 24.152 184.863 24.152H186.191C186.607 24.152 186.815 24.408 186.815 24.888V27.192C186.815 27.416 186.911 27.528 187.135 27.528H192.975C193.343 27.528 193.535 27.656 193.535 27.944C193.535 28.216 193.343 28.36 192.991 28.36ZM202.521 22.984H197.113C196.473 22.984 196.153 22.648 196.153 21.96V17.896C196.153 17.544 196.105 17.304 196.041 17.144C195.945 17.016 195.769 16.888 195.481 16.792C195.369 16.76 195.289 16.728 195.225 16.664C195.161 16.632 195.129 16.568 195.129 16.472C195.129 16.312 195.257 16.216 195.545 16.216H201.849C202.201 16.216 202.393 16.36 202.393 16.632C202.393 16.904 202.201 17.032 201.833 17.032H197.145V21.72C197.145 22.024 197.289 22.168 197.577 22.168H202.505C202.873 22.168 203.065 22.312 203.065 22.568C203.065 22.856 202.873 22.984 202.521 22.984ZM205.417 15.416C205.417 15.096 205.321 14.872 205.161 14.744C204.969 14.632 204.761 14.552 204.521 14.488C204.265 14.44 204.089 14.392 204.025 14.344C203.945 14.312 203.913 14.248 203.913 14.168C203.913 13.992 204.057 13.896 204.361 13.896H205.801C206.217 13.896 206.425 14.12 206.425 14.552V26.216C206.425 27.176 206.169 27.656 205.657 27.656H205.417V19.96H201.769C201.385 19.96 201.209 19.832 201.209 19.544C201.209 19.288 201.385 19.144 201.769 19.144H205.417V15.416Z" fill="#1D1E1F"/>
<path d="M29.3481 78.56C31.3101 76.832 33.0021 74.87 34.4241 72.674C35.0361 71.738 35.3601 70.712 35.3601 69.632C35.3601 69.02 35.1261 68.498 34.6761 68.03C34.2081 67.58 33.5061 67.346 32.5341 67.346C31.7961 67.346 31.1481 67.598 30.5901 68.066C30.2121 68.39 29.9961 68.786 29.9421 69.254H29.3121C29.3841 68.678 29.6541 68.138 30.1221 67.634C30.7881 66.914 31.6701 66.554 32.7501 66.554C33.9741 66.554 34.9101 66.896 35.5941 67.562C36.3321 68.282 36.6741 69.164 36.6021 70.226C36.5301 71.27 36.0801 72.314 35.2881 73.322C33.7761 75.266 32.1561 76.994 30.4641 78.47H34.1541C34.8741 78.47 35.4501 78.38 35.8461 78.182C36.2421 78.002 36.5121 77.516 36.6741 76.76C36.6741 76.67 36.7281 76.616 36.8361 76.616C36.9261 76.634 36.9621 76.688 36.9621 76.778L36.7641 79.136H29.3481V78.56ZM42.9748 79.334C42.2188 79.352 41.6068 79.19 41.1028 78.848C40.5988 78.524 40.1668 78.092 39.8068 77.516C39.5008 76.94 39.2668 76.256 39.1228 75.464C38.9608 74.672 38.8888 73.826 38.8888 72.908C38.8888 72.152 38.9608 71.378 39.1048 70.604C39.2488 69.848 39.4648 69.182 39.7888 68.57C40.1128 67.994 40.5268 67.508 41.0488 67.13C41.5528 66.77 42.1828 66.572 42.9388 66.554C43.6588 66.572 44.2888 66.752 44.8288 67.112C45.3328 67.49 45.7648 67.958 46.0888 68.534C46.4128 69.128 46.6468 69.812 46.8088 70.568C46.9528 71.36 47.0428 72.134 47.0428 72.908C47.0428 73.718 46.9528 74.51 46.8088 75.284C46.6468 76.076 46.4128 76.76 46.0888 77.354C45.7648 77.966 45.3328 78.434 44.8288 78.794C44.3068 79.172 43.6948 79.352 42.9748 79.334ZM40.1128 72.908C40.1128 73.538 40.1488 74.186 40.2388 74.852C40.3108 75.536 40.4368 76.148 40.6528 76.688C40.8688 77.264 41.1748 77.732 41.5348 78.092C41.8768 78.47 42.3628 78.65 42.9748 78.65C43.5688 78.65 44.0548 78.452 44.4148 78.056C44.7748 77.678 45.0628 77.192 45.2788 76.598C45.4768 76.058 45.6208 75.464 45.7108 74.78C45.7828 74.114 45.8368 73.484 45.8368 72.908C45.8368 72.242 45.7828 71.576 45.6928 70.892C45.5848 70.244 45.4228 69.632 45.2068 69.056C44.9548 68.516 44.6668 68.084 44.3248 67.724C43.9648 67.382 43.4968 67.202 42.9388 67.202C42.3268 67.202 41.8408 67.382 41.4988 67.742C41.1388 68.102 40.8508 68.552 40.6348 69.092C40.4188 69.632 40.2928 70.244 40.2208 70.91C40.1488 71.594 40.1128 72.26 40.1128 72.908ZM48.7895 78.56C50.7515 76.832 52.4435 74.87 53.8655 72.674C54.4775 71.738 54.8015 70.712 54.8015 69.632C54.8015 69.02 54.5675 68.498 54.1175 68.03C53.6495 67.58 52.9475 67.346 51.9755 67.346C51.2375 67.346 50.5895 67.598 50.0315 68.066C49.6535 68.39 49.4375 68.786 49.3835 69.254H48.7535C48.8255 68.678 49.0955 68.138 49.5635 67.634C50.2295 66.914 51.1115 66.554 52.1915 66.554C53.4155 66.554 54.3515 66.896 55.0355 67.562C55.7735 68.282 56.1155 69.164 56.0435 70.226C55.9715 71.27 55.5215 72.314 54.7295 73.322C53.2175 75.266 51.5975 76.994 49.9055 78.47H53.5955C54.3155 78.47 54.8915 78.38 55.2875 78.182C55.6835 78.002 55.9535 77.516 56.1155 76.76C56.1155 76.67 56.1695 76.616 56.2775 76.616C56.3675 76.634 56.4035 76.688 56.4035 76.778L56.2055 79.136H48.7895V78.56ZM59.9142 72.458C60.5442 72.026 61.2102 71.756 61.9302 71.684C62.6502 71.612 63.3882 71.72 64.1262 72.008C64.7022 72.224 65.1882 72.602 65.6022 73.178C65.9982 73.772 66.1962 74.456 66.1962 75.248C66.1962 76.256 65.8902 77.102 65.3142 77.768C64.7202 78.452 64.0002 78.902 63.1722 79.118C62.3442 79.334 61.4982 79.406 60.6342 79.298C59.8242 79.226 59.1042 79.01 58.4742 78.668V77.93C58.8702 78.146 59.3742 78.29 60.0222 78.398C60.6522 78.506 61.3362 78.524 62.0922 78.434C62.8122 78.362 63.4422 78.056 64.0002 77.552C64.2522 77.282 64.4682 76.958 64.6482 76.562C64.8282 76.202 64.9182 75.734 64.9182 75.176C64.9182 74.636 64.7742 74.132 64.5222 73.7C64.2342 73.286 63.8382 72.944 63.2982 72.692C63.0102 72.566 62.6862 72.494 62.3262 72.494C61.9302 72.512 61.5702 72.548 61.2282 72.62C60.6522 72.764 60.1302 73.052 59.6982 73.52H58.8342L59.1762 66.842H65.2602V67.634H60.2202L59.9142 72.458ZM76.2409 74.438H70.7329C69.5809 74.438 69.0229 73.952 69.0229 72.962V68.696C69.0229 68.426 68.9509 68.21 68.8249 68.048C68.6809 67.904 68.4829 67.796 68.1949 67.724C68.0149 67.688 67.8889 67.652 67.8529 67.598C67.7809 67.562 67.7629 67.472 67.7629 67.364C67.7629 67.184 67.8889 67.076 68.1769 67.076H69.5269C69.9409 67.076 70.1569 67.364 70.1569 67.904V73.142C70.1569 73.394 70.2649 73.52 70.5169 73.52H76.2409C76.6549 73.52 76.8709 73.682 76.8709 73.988C76.8709 74.294 76.6549 74.438 76.2409 74.438ZM79.4449 77.786V71.99H75.3949C74.9989 71.99 74.8189 71.846 74.8189 71.522C74.8189 71.234 74.9989 71.09 75.3949 71.09H79.4449V69.146H75.3949C74.9989 69.146 74.8189 69.002 74.8189 68.678C74.8189 68.39 74.9989 68.246 75.3949 68.246H79.4449V66.95C79.4449 66.608 79.3369 66.356 79.1569 66.212C78.9409 66.086 78.7069 65.996 78.4369 65.924C78.1489 65.87 77.9509 65.816 77.8789 65.762C77.7889 65.726 77.7529 65.654 77.7529 65.564C77.7529 65.366 77.9149 65.258 78.2569 65.258H79.8769C80.3449 65.258 80.5789 65.51 80.5789 65.978V76.166C80.5789 77.246 80.2909 77.786 79.7149 77.786H79.4449ZM80.7589 81.53H74.4229C73.2529 81.53 72.6769 81.008 72.6769 80V78.146C72.6769 77.822 72.5869 77.588 72.4069 77.444C72.2269 77.336 71.9749 77.228 71.6689 77.138C71.4349 77.084 71.2909 77.03 71.2369 76.976C71.1649 76.94 71.1289 76.868 71.1289 76.76C71.1289 76.562 71.2909 76.454 71.6509 76.454H73.1269C73.5769 76.454 73.8109 76.742 73.8109 77.282V80.216C73.8109 80.468 73.9189 80.594 74.1709 80.594H80.7409C81.1729 80.594 81.3889 80.738 81.3889 81.062C81.3889 81.368 81.1729 81.53 80.7589 81.53Z" fill="#181A1F"/>
<path d="M89.2895 80.072V79.496C89.3615 79.448 89.4575 79.37 89.5775 79.262C89.6975 79.142 89.8415 78.992 90.0095 78.812C90.2495 78.584 90.5315 78.296 90.8555 77.948C91.1795 77.588 91.5095 77.204 91.8455 76.796C92.1815 76.376 92.5115 75.95 92.8355 75.518C93.1595 75.074 93.4475 74.642 93.6995 74.222C94.0115 73.718 94.2755 73.208 94.4915 72.692C94.7195 72.176 94.8335 71.528 94.8335 70.748C94.8335 70.136 94.6355 69.608 94.2395 69.164C93.8555 68.708 93.2375 68.48 92.3855 68.48C92.0015 68.48 91.6595 68.546 91.3595 68.678C91.0715 68.81 90.8255 68.972 90.6215 69.164C90.4295 69.356 90.2795 69.56 90.1715 69.776C90.0755 69.992 90.0335 70.184 90.0455 70.352H89.2535C89.2775 70.16 89.3495 69.914 89.4695 69.614C89.5895 69.302 89.7755 69.002 90.0275 68.714C90.2795 68.438 90.6095 68.198 91.0175 67.994C91.4255 67.778 91.9355 67.67 92.5475 67.67C93.6635 67.67 94.5395 67.988 95.1755 68.624C95.8235 69.248 96.1475 70.13 96.1475 71.27C96.1475 71.702 96.0395 72.194 95.8235 72.746C95.6075 73.286 95.3015 73.82 94.9055 74.348C94.5575 74.792 94.1735 75.266 93.7535 75.77C93.3455 76.262 92.9375 76.736 92.5295 77.192C92.1095 77.66 91.7075 78.086 91.3235 78.47C90.9515 78.854 90.6335 79.142 90.3695 79.334H93.8435C94.1555 79.334 94.4315 79.322 94.6715 79.298C94.9115 79.262 95.1155 79.19 95.2835 79.082C95.4515 78.974 95.5895 78.812 95.6975 78.596C95.8175 78.38 95.9195 78.086 96.0035 77.714C96.0275 77.606 96.1115 77.558 96.2555 77.57C96.3995 77.582 96.4715 77.624 96.4715 77.696L96.2915 80.072H89.2895ZM98.8835 69.47C98.8835 68.654 99.2015 67.976 99.8375 67.436C100.474 66.896 101.308 66.626 102.34 66.626C102.832 66.626 103.288 66.704 103.708 66.86C104.128 67.004 104.494 67.202 104.806 67.454C105.106 67.718 105.34 68.024 105.508 68.372C105.688 68.708 105.778 69.074 105.778 69.47C105.778 70.274 105.466 70.952 104.842 71.504C104.218 72.044 103.384 72.308 102.34 72.296C101.824 72.296 101.35 72.224 100.918 72.08C100.498 71.936 100.138 71.738 99.8375 71.486C99.5255 71.222 99.2855 70.922 99.1175 70.586C98.9615 70.238 98.8835 69.866 98.8835 69.47ZM99.9995 69.47C99.9995 69.986 100.21 70.442 100.63 70.838C101.062 71.222 101.632 71.414 102.34 71.414C103.06 71.414 103.624 71.222 104.032 70.838C104.452 70.442 104.662 69.986 104.662 69.47C104.662 68.966 104.452 68.522 104.032 68.138C103.624 67.742 103.06 67.538 102.34 67.526C101.62 67.526 101.05 67.718 100.63 68.102C100.21 68.486 99.9995 68.942 99.9995 69.47ZM110.566 66.986V74.654C110.566 75.23 110.482 75.644 110.314 75.896C110.158 76.148 109.96 76.274 109.72 76.274H109.45V75.5H105.868C105.76 75.5 105.67 75.464 105.598 75.392C105.538 75.308 105.508 75.194 105.508 75.05C105.508 74.906 105.544 74.798 105.616 74.726C105.688 74.654 105.778 74.618 105.886 74.618H109.45V67.904C109.45 67.544 109.348 67.304 109.144 67.184C108.952 67.052 108.7 66.956 108.388 66.896C108.136 66.86 107.968 66.818 107.884 66.77C107.812 66.722 107.776 66.65 107.776 66.554C107.776 66.446 107.818 66.368 107.902 66.32C107.998 66.26 108.124 66.23 108.28 66.23H109.9C110.104 66.23 110.266 66.302 110.386 66.446C110.506 66.59 110.566 66.77 110.566 66.986ZM108.28 73.286C108.04 73.406 107.734 73.514 107.362 73.61C107.002 73.694 106.606 73.766 106.174 73.826C105.742 73.886 105.304 73.934 104.86 73.97C104.416 73.994 104.002 74.006 103.618 74.006H103.042V74.654C103.042 75.23 102.958 75.644 102.79 75.896C102.634 76.148 102.454 76.274 102.25 76.274H101.926V74.006H98.2895C98.0975 74.006 97.9595 73.964 97.8755 73.88C97.8035 73.796 97.7675 73.688 97.7675 73.556C97.7675 73.436 97.8095 73.328 97.8935 73.232C97.9775 73.136 98.1155 73.088 98.3075 73.088H103.582C104.338 73.088 105.112 73.076 105.904 73.052C106.696 73.028 107.458 72.938 108.19 72.782C108.43 72.722 108.55 72.764 108.55 72.908C108.562 73.052 108.472 73.178 108.28 73.286ZM102.178 79.406H109.108V77.75H102.736C102.556 77.75 102.43 77.708 102.358 77.624C102.286 77.528 102.25 77.426 102.25 77.318C102.25 77.174 102.28 77.06 102.34 76.976C102.412 76.892 102.538 76.85 102.718 76.85H109.612C109.816 76.85 109.966 76.904 110.062 77.012C110.17 77.108 110.224 77.282 110.224 77.534V79.514C110.224 79.778 110.176 79.976 110.08 80.108C109.984 80.24 109.822 80.306 109.594 80.306H103.888V81.458C103.888 81.686 103.948 81.836 104.068 81.908C104.2 81.98 104.332 82.016 104.464 82.016H110.332C110.5 82.016 110.62 82.058 110.692 82.142C110.776 82.238 110.818 82.34 110.818 82.448C110.818 82.592 110.776 82.706 110.692 82.79C110.62 82.886 110.506 82.934 110.35 82.934H103.942C103.558 82.934 103.27 82.82 103.078 82.592C102.886 82.376 102.79 82.088 102.79 81.728V80.864C102.79 80.612 102.736 80.426 102.628 80.306C102.52 80.186 102.346 80.09 102.106 80.018C101.998 79.994 101.92 79.964 101.872 79.928C101.824 79.88 101.8 79.802 101.8 79.694C101.8 79.586 101.83 79.514 101.89 79.478C101.962 79.43 102.058 79.406 102.178 79.406Z" fill="#181A1F"/>
<path fill-rule="evenodd" clip-rule="evenodd" d="M313.499 68.4188C313.724 68.6438 313.724 69.0113 313.499 69.2363L307.739 74.9963L313.499 80.7563C313.724 80.9813 313.724 81.3488 313.499 81.5738C313.274 81.7988 312.906 81.7988 312.681 81.5738L306.509 75.4088C306.284 75.1838 306.284 74.8162 306.509 74.5912L312.674 68.4188C312.899 68.1937 313.266 68.1937 313.491 68.4188H313.499Z" fill="#5C5C5C"/>
<path fill-rule="evenodd" clip-rule="evenodd" d="M335.319 68.4227L341.491 74.5877C341.716 74.8127 341.716 75.1802 341.491 75.4052L335.319 81.5777C335.094 81.8027 334.726 81.8027 334.501 81.5777C334.276 81.3527 334.276 80.9852 334.501 80.7602L340.261 75.0002L334.501 69.2402C334.276 69.0152 334.276 68.6477 334.501 68.4227C334.726 68.1977 335.094 68.1977 335.319 68.4227Z" fill="#5C5C5C"/>
<path d="M59.2899 119.23C59.2899 118.964 59.2339 118.698 59.1359 118.446C59.0239 118.208 58.8699 117.998 58.6879 117.816C58.4919 117.634 58.2819 117.48 58.0299 117.368C57.7779 117.27 57.4979 117.214 57.2179 117.214C56.9239 117.214 56.6579 117.27 56.4199 117.368C56.1679 117.48 55.9439 117.634 55.7479 117.816C55.5659 117.998 55.4259 118.208 55.3279 118.446C55.2159 118.698 55.1599 118.964 55.1599 119.23C55.1599 119.51 55.2159 119.748 55.3279 119.972C55.4259 120.196 55.5659 120.406 55.7479 120.574C55.9439 120.77 56.1679 120.91 56.4199 121.008C56.6579 121.12 56.9239 121.176 57.2179 121.176C57.4979 121.176 57.7779 121.12 58.0299 121.008C58.2819 120.91 58.4919 120.77 58.6879 120.574C58.8699 120.406 59.0239 120.196 59.1359 119.972C59.2339 119.748 59.2899 119.51 59.2899 119.23ZM60.1579 119.202C60.1579 119.58 60.0739 119.93 59.9199 120.252C59.7519 120.588 59.5419 120.868 59.2759 121.12C59.0099 121.372 58.7019 121.554 58.3519 121.694C57.9879 121.848 57.6099 121.918 57.2179 121.918C56.8119 121.918 56.4339 121.848 56.0979 121.694C55.7339 121.554 55.4259 121.372 55.1599 121.12C54.8939 120.868 54.6839 120.588 54.5299 120.252C54.3619 119.93 54.2919 119.58 54.2919 119.202C54.2919 118.838 54.3619 118.474 54.5299 118.138C54.6839 117.816 54.8939 117.522 55.1599 117.27C55.4259 117.032 55.7339 116.836 56.0979 116.682C56.4339 116.542 56.8119 116.472 57.2179 116.472C57.6099 116.472 57.9879 116.542 58.3519 116.682C58.7019 116.836 59.0099 117.032 59.2759 117.27C59.5419 117.522 59.7519 117.816 59.9199 118.138C60.0739 118.474 60.1579 118.838 60.1579 119.202ZM62.8599 116.85C62.8599 116.584 62.7759 116.388 62.6359 116.276C62.4679 116.178 62.2859 116.108 62.0759 116.052C61.8519 116.01 61.6979 115.968 61.6419 115.926C61.5719 115.898 61.5439 115.842 61.5439 115.772C61.5439 115.618 61.6699 115.534 61.9359 115.534H63.1959C63.5599 115.534 63.7419 115.73 63.7419 116.108V121.022C63.7419 121.862 63.5179 122.282 63.0699 122.282H62.8599V116.85ZM57.5119 125.362H62.5659V123.78H57.9179C57.5819 123.78 57.4279 123.668 57.4279 123.416C57.4279 123.192 57.5679 123.066 57.8759 123.066H62.9159C63.2659 123.066 63.4479 123.262 63.4479 123.626V125.39C63.4479 125.838 63.2379 126.062 62.8179 126.062H58.7579V127.252C58.7579 127.532 58.8699 127.672 59.1219 127.672H63.4199C63.7419 127.672 63.9099 127.784 63.9099 128.022C63.9099 128.26 63.7419 128.386 63.4339 128.386H58.6599C58.1279 128.386 57.8759 128.078 57.8759 127.49V126.454C57.8759 126.104 57.6799 125.894 57.3159 125.824C57.2599 125.824 57.2039 125.796 57.1759 125.754C57.1199 125.726 57.1059 125.67 57.1059 125.586C57.1059 125.446 57.2319 125.362 57.5119 125.362Z" fill="#F27474"/>
<path d="M102.69 117.844C102.69 118.152 102.62 118.432 102.48 118.684C102.34 118.964 102.144 119.188 101.906 119.37C101.654 119.58 101.36 119.734 101.052 119.846C100.73 119.972 100.394 120.028 100.03 120.028C99.6662 120.028 99.3162 119.972 99.0082 119.846C98.6722 119.734 98.3922 119.58 98.1542 119.37C97.9022 119.188 97.7202 118.964 97.5802 118.684C97.4402 118.432 97.3702 118.152 97.3702 117.844C97.3702 117.55 97.4402 117.27 97.5802 116.99C97.7202 116.738 97.9022 116.514 98.1542 116.318C98.3922 116.122 98.6722 115.954 99.0082 115.828C99.3162 115.716 99.6662 115.66 100.03 115.66C100.394 115.66 100.73 115.716 101.052 115.828C101.36 115.954 101.654 116.122 101.906 116.318C102.144 116.514 102.34 116.738 102.48 116.99C102.62 117.27 102.69 117.55 102.69 117.844ZM101.808 117.844C101.808 117.452 101.626 117.116 101.29 116.822C100.926 116.542 100.506 116.402 100.03 116.402C99.5262 116.402 99.1062 116.542 98.7702 116.822C98.4202 117.116 98.2522 117.452 98.2522 117.844C98.2522 118.236 98.4202 118.572 98.7702 118.852C99.1062 119.146 99.5262 119.286 100.03 119.286C100.506 119.286 100.926 119.146 101.29 118.852C101.626 118.572 101.808 118.236 101.808 117.844ZM100.702 121.386V122.548C100.702 123.136 100.492 123.43 100.072 123.43H99.8062V121.386H96.8942C96.5862 121.386 96.4462 121.26 96.4462 121.008C96.4462 120.77 96.5862 120.644 96.8942 120.644H101.36C101.976 120.644 102.536 120.63 103.026 120.602C103.502 120.574 103.964 120.532 104.44 120.448C104.664 120.42 104.79 120.462 104.832 120.574C104.86 120.7 104.79 120.798 104.65 120.882C104.412 121.022 104.006 121.134 103.418 121.232C102.816 121.344 102.102 121.386 101.262 121.386H100.702ZM105.574 116.864C105.574 116.584 105.49 116.388 105.35 116.276C105.182 116.178 105 116.108 104.79 116.052C104.566 116.01 104.412 115.968 104.356 115.926C104.286 115.898 104.258 115.842 104.258 115.772C104.258 115.618 104.384 115.534 104.65 115.534H105.91C106.274 115.534 106.456 115.73 106.456 116.094V122.1C106.456 122.94 106.232 123.346 105.784 123.346H105.574V122.744H102.928C102.592 122.744 102.424 122.632 102.424 122.38C102.424 122.156 102.592 122.03 102.928 122.03H105.574V116.864ZM100.072 125.754H105.28V124.55H100.478C100.142 124.55 99.9882 124.438 99.9882 124.2C99.9882 123.976 100.128 123.85 100.436 123.85H105.63C105.98 123.85 106.162 124.046 106.162 124.41V125.768C106.162 126.216 105.952 126.44 105.532 126.44H101.304V127.252C101.304 127.532 101.416 127.672 101.668 127.672H106.134C106.456 127.672 106.624 127.784 106.624 128.022C106.624 128.26 106.456 128.386 106.148 128.386H101.22C100.688 128.386 100.436 128.078 100.436 127.49V126.846C100.436 126.496 100.24 126.286 99.8762 126.216C99.8202 126.216 99.7642 126.188 99.7362 126.146C99.6802 126.118 99.6662 126.062 99.6662 125.978C99.6662 125.838 99.7922 125.754 100.072 125.754Z" fill="#6F6F6F"/>
<path d="M143.273 119.874C143.105 119.832 143.021 119.748 143.049 119.636C143.077 119.51 143.203 119.468 143.427 119.496C143.903 119.58 144.295 119.79 144.575 120.126C144.855 120.476 144.981 120.84 144.953 121.204C144.897 121.876 144.659 122.38 144.211 122.716C143.875 122.968 143.497 123.136 143.063 123.192V124.774H143.357C143.973 124.774 144.533 124.76 145.023 124.732C145.499 124.704 145.975 124.662 146.451 124.578C146.661 124.55 146.787 124.592 146.829 124.704C146.857 124.83 146.801 124.928 146.661 125.012C146.437 125.152 146.017 125.264 145.429 125.362C144.813 125.474 144.099 125.516 143.273 125.516H139.185C138.877 125.516 138.737 125.39 138.737 125.138C138.737 124.9 138.877 124.774 139.185 124.774H142.195V123.192C141.691 123.122 141.243 122.912 140.865 122.562C140.389 122.156 140.151 121.638 140.123 121.022C140.123 120.21 140.501 119.524 141.271 118.978H139.479C139.129 118.978 138.961 118.866 138.961 118.614C138.961 118.39 139.101 118.264 139.409 118.264H145.261C145.569 118.264 145.737 118.39 145.737 118.614C145.737 118.866 145.569 118.978 145.247 118.978H143.259C142.503 118.978 141.943 119.174 141.565 119.566C141.173 119.972 140.991 120.462 141.019 121.022C141.089 121.96 141.607 122.45 142.559 122.478C143.511 122.45 144.029 122.016 144.085 121.204C144.099 120.938 144.057 120.672 143.945 120.406C143.833 120.154 143.609 119.972 143.273 119.874ZM141.131 116.738L140.739 116.43C140.655 116.36 140.613 116.29 140.613 116.22C140.585 116.164 140.599 116.094 140.655 116.01C140.711 115.954 140.767 115.912 140.823 115.898C140.865 115.898 140.935 115.926 141.019 115.968C141.509 116.206 141.929 116.36 142.293 116.416C142.629 116.486 143.021 116.514 143.455 116.514C143.763 116.514 143.917 116.64 143.917 116.864C143.917 116.99 143.875 117.074 143.791 117.13C143.707 117.186 143.623 117.214 143.553 117.214L142.475 117.2C141.929 117.2 141.481 117.046 141.131 116.738ZM147.585 116.85C147.585 116.584 147.501 116.402 147.347 116.29C147.179 116.192 146.983 116.108 146.759 116.052C146.563 116.01 146.423 115.968 146.367 115.926C146.297 115.898 146.269 115.842 146.269 115.772C146.269 115.618 146.395 115.534 146.647 115.534H147.921C148.285 115.534 148.467 115.73 148.467 116.108V120.756H150.525C150.861 120.756 151.029 120.882 151.029 121.12C151.029 121.372 150.861 121.484 150.525 121.484H148.467V126.314C148.467 127.154 148.229 127.574 147.781 127.574H147.585V116.85Z" fill="#6F6F6F"/>
<path d="M188.393 116.864C188.379 117.312 188.197 117.774 187.833 118.264L191.165 120.336C191.333 120.448 191.431 120.574 191.459 120.7C191.459 120.84 191.431 120.952 191.361 121.036C191.291 121.12 191.207 121.176 191.095 121.176C190.969 121.19 190.829 121.134 190.661 121.008L187.469 118.712C186.433 119.804 185.173 120.686 183.675 121.358C183.465 121.442 183.325 121.414 183.241 121.274C183.157 121.148 183.199 121.036 183.381 120.938C184.263 120.462 185.089 119.874 185.859 119.174C186.615 118.488 187.077 117.816 187.273 117.158C187.315 116.99 187.259 116.878 187.105 116.794C186.937 116.724 186.755 116.668 186.559 116.626C186.377 116.598 186.293 116.5 186.321 116.346C186.321 116.206 186.461 116.122 186.713 116.122H187.595C187.931 116.122 188.155 116.192 188.267 116.318C188.351 116.458 188.393 116.64 188.393 116.864ZM192.999 123.486H188.043V126.566C188.043 127.42 187.833 127.854 187.413 127.854H187.175V123.486H182.149C181.841 123.486 181.701 123.36 181.701 123.108C181.701 122.87 181.841 122.744 182.149 122.744H192.999C193.335 122.744 193.503 122.87 193.503 123.108C193.503 123.36 193.335 123.486 192.999 123.486Z" fill="#6F6F6F"/>
<path d="M228.07 119.23C228.07 119.398 228.056 119.552 228.056 119.678H232.564V116.92H228.07V119.23ZM232.858 116.206C233.25 116.206 233.446 116.416 233.446 116.836V119.916C233.446 120.238 233.292 120.392 233.012 120.392H230.772V122.142H235.7C236.036 122.142 236.218 122.268 236.218 122.506C236.218 122.758 236.05 122.884 235.714 122.884H224.878C224.57 122.884 224.416 122.758 224.416 122.506C224.416 122.268 224.556 122.142 224.864 122.142H229.89V120.392H227.832C227.72 120.56 227.58 120.63 227.398 120.63H227.188V117.704C227.188 117.382 227.146 117.144 227.062 117.004C226.964 116.864 226.796 116.766 226.544 116.71C226.46 116.696 226.39 116.668 226.362 116.612C226.32 116.57 226.306 116.514 226.306 116.444C226.306 116.29 226.404 116.206 226.6 116.206H232.858ZM227.062 125.096C226.782 125.096 226.642 124.984 226.642 124.732C226.642 124.508 226.768 124.382 227.02 124.382H232.914C233.278 124.382 233.474 124.578 233.474 124.956V127.336C233.474 128.176 233.264 128.596 232.858 128.596H232.62V125.096H227.062Z" fill="#6F6F6F"/>
<path d="M269.846 117.004C269.51 117.004 269.356 116.892 269.356 116.64C269.356 116.402 269.496 116.276 269.804 116.276H275.67C276.076 116.276 276.286 116.486 276.286 116.878C276.23 118.978 276.048 120.448 275.712 121.288H278.428C278.764 121.288 278.932 121.414 278.932 121.666C278.932 121.918 278.764 122.044 278.428 122.044H267.578C267.27 122.044 267.13 121.918 267.13 121.666C267.13 121.414 267.27 121.288 267.578 121.288H275.138C275.124 121.232 275.124 121.176 275.138 121.106C275.306 119.902 275.39 118.53 275.362 117.004H269.846ZM270.994 127.07C270.994 127.252 270.98 127.42 270.966 127.574H275.306V124.522H270.994V127.07ZM275.572 123.808C275.964 123.808 276.16 124.018 276.16 124.438V127.812C276.16 128.12 276.006 128.288 275.726 128.288H270.728C270.616 128.4 270.49 128.47 270.336 128.47H270.14V125.306C270.14 124.984 270.098 124.76 270.028 124.62C269.944 124.508 269.79 124.396 269.552 124.312C269.44 124.284 269.37 124.242 269.328 124.2C269.272 124.172 269.244 124.116 269.244 124.032C269.244 123.892 269.356 123.808 269.594 123.808H275.572Z" fill="#6F6F6F"/>
<path d="M318.216 119.608C318.524 119.608 318.692 119.734 318.692 119.972C318.692 120.21 318.524 120.322 318.216 120.322H313.456V122.002C313.456 122.268 313.582 122.394 313.834 122.394H318.72C319.042 122.394 319.21 122.506 319.21 122.73C319.21 122.982 319.042 123.094 318.734 123.094H316.186V125.222H321.128C321.464 125.222 321.646 125.348 321.646 125.586C321.646 125.838 321.464 125.964 321.128 125.964H310.292C309.984 125.964 309.844 125.838 309.844 125.586C309.844 125.348 309.984 125.222 310.292 125.222H315.304V123.094H313.428C312.854 123.094 312.574 122.8 312.574 122.198V118.32C312.574 118.012 312.532 117.802 312.476 117.662C312.392 117.55 312.238 117.438 311.986 117.354C311.888 117.326 311.818 117.298 311.762 117.242C311.706 117.214 311.678 117.158 311.678 117.074C311.678 116.934 311.804 116.85 312.056 116.85H318.37C318.678 116.85 318.846 116.976 318.846 117.214C318.846 117.452 318.678 117.564 318.356 117.564H313.456V119.608H318.216Z" fill="#84C3EE"/>
<path d="M315.419 175.056V167.944C315.419 167.916 315.414 167.888 315.405 167.86C315.405 167.832 315.405 167.799 315.405 167.762C315.405 167.734 315.405 167.706 315.405 167.678C315.405 167.641 315.405 167.599 315.405 167.552C315.405 167.244 315.316 167.02 315.139 166.88C314.962 166.731 314.663 166.726 314.243 166.866L313.935 166.978C313.823 167.025 313.744 166.992 313.697 166.88C313.66 166.768 313.706 166.679 313.837 166.614L316.007 165.41H316.357V175.056H315.419Z" fill="#84C3EE"/>
<path d="M56.5851 223.056V222.608C56.6411 222.571 56.7158 222.51 56.8091 222.426C56.9025 222.333 57.0145 222.216 57.1451 222.076C57.3318 221.899 57.5511 221.675 57.8031 221.404C58.0551 221.124 58.3118 220.825 58.5731 220.508C58.8345 220.181 59.0911 219.85 59.3431 219.514C59.5951 219.169 59.8191 218.833 60.0151 218.506C60.2578 218.114 60.4631 217.717 60.6311 217.316C60.8085 216.915 60.8971 216.411 60.8971 215.804C60.8971 215.328 60.7431 214.917 60.4351 214.572C60.1365 214.217 59.6558 214.04 58.9931 214.04C58.6945 214.04 58.4285 214.091 58.1951 214.194C57.9711 214.297 57.7798 214.423 57.6211 214.572C57.4718 214.721 57.3551 214.88 57.2711 215.048C57.1965 215.216 57.1638 215.365 57.1731 215.496H56.5571C56.5758 215.347 56.6318 215.155 56.7251 214.922C56.8185 214.679 56.9631 214.446 57.1591 214.222C57.3551 214.007 57.6118 213.821 57.9291 213.662C58.2465 213.494 58.6431 213.41 59.1191 213.41C59.9871 213.41 60.6685 213.657 61.1631 214.152C61.6671 214.637 61.9191 215.323 61.9191 216.21C61.9191 216.546 61.8351 216.929 61.6671 217.358C61.4991 217.778 61.2611 218.193 60.9531 218.604C60.6825 218.949 60.3838 219.318 60.0571 219.71C59.7398 220.093 59.4225 220.461 59.1051 220.816C58.7785 221.18 58.4658 221.511 58.1671 221.81C57.8778 222.109 57.6305 222.333 57.4251 222.482H60.1271C60.3698 222.482 60.5845 222.473 60.7711 222.454C60.9578 222.426 61.1165 222.37 61.2471 222.286C61.3778 222.202 61.4851 222.076 61.5691 221.908C61.6625 221.74 61.7418 221.511 61.8071 221.222C61.8258 221.138 61.8911 221.101 62.0031 221.11C62.1151 221.119 62.1711 221.152 62.1711 221.208L62.0311 223.056H56.5851Z" fill="#6F6F6F"/>
<path d="M99.8874 215.188H99.2854C99.3041 215.029 99.3601 214.852 99.4534 214.656C99.5468 214.451 99.6914 214.259 99.8874 214.082C100.083 213.905 100.335 213.755 100.643 213.634C100.961 213.503 101.353 213.429 101.819 213.41C102.146 213.41 102.477 213.461 102.813 213.564C103.149 213.667 103.448 213.816 103.709 214.012C103.98 214.208 104.199 214.455 104.367 214.754C104.535 215.053 104.619 215.403 104.619 215.804C104.619 216.392 104.465 216.882 104.157 217.274C103.859 217.666 103.471 217.918 102.995 218.03V218.086C103.201 218.142 103.406 218.226 103.611 218.338C103.826 218.45 104.017 218.604 104.185 218.8C104.353 218.996 104.489 219.239 104.591 219.528C104.694 219.808 104.745 220.149 104.745 220.55C104.745 220.998 104.652 221.39 104.465 221.726C104.279 222.053 104.027 222.328 103.709 222.552C103.383 222.776 103.009 222.939 102.589 223.042C102.169 223.154 101.721 223.21 101.245 223.21C100.816 223.21 100.401 223.14 99.9994 223C99.5981 222.86 99.3181 222.748 99.1594 222.664V222.034C99.2434 222.09 99.3601 222.151 99.5094 222.216C99.6588 222.272 99.8174 222.328 99.9854 222.384C100.163 222.431 100.335 222.473 100.503 222.51C100.681 222.538 100.839 222.552 100.979 222.552C101.269 222.552 101.572 222.524 101.889 222.468C102.216 222.403 102.51 222.291 102.771 222.132C103.042 221.973 103.261 221.749 103.429 221.46C103.607 221.171 103.695 220.802 103.695 220.354C103.695 219.841 103.579 219.411 103.345 219.066C103.121 218.711 102.809 218.497 102.407 218.422L101.441 218.338C101.367 218.338 101.311 218.315 101.273 218.268C101.236 218.212 101.217 218.151 101.217 218.086C101.217 218.021 101.236 217.96 101.273 217.904C101.311 217.848 101.367 217.82 101.441 217.82L102.239 217.778C102.379 217.759 102.529 217.713 102.687 217.638C102.855 217.563 103.005 217.451 103.135 217.302C103.266 217.143 103.373 216.947 103.457 216.714C103.551 216.471 103.597 216.173 103.597 215.818C103.597 215.211 103.42 214.754 103.065 214.446C102.711 214.138 102.239 213.984 101.651 213.984C101.166 213.984 100.779 214.101 100.489 214.334C100.2 214.558 99.9994 214.843 99.8874 215.188Z" fill="#6F6F6F"/>
<path d="M145.556 223.056V220.312H141.51V219.654L145.472 213.424H146.452V219.654H148.076V220.312H146.452V223.056H145.556ZM145.472 214.726L142.308 219.654H145.556V214.726H145.472Z" fill="#6F6F6F"/>
<path d="M186.1 214.194L185.918 217.75C186.021 217.694 186.175 217.629 186.38 217.554C186.595 217.479 186.837 217.419 187.108 217.372C187.388 217.325 187.682 217.307 187.99 217.316C188.307 217.325 188.625 217.391 188.942 217.512C189.381 217.68 189.74 217.993 190.02 218.45C190.309 218.907 190.454 219.435 190.454 220.032C190.454 220.797 190.244 221.446 189.824 221.978C189.404 222.501 188.877 222.846 188.242 223.014C187.85 223.126 187.477 223.182 187.122 223.182C186.767 223.191 186.441 223.168 186.142 223.112C185.843 223.056 185.577 222.986 185.344 222.902C185.12 222.818 184.938 222.734 184.798 222.65V222.062C184.929 222.146 185.106 222.221 185.33 222.286C185.563 222.351 185.806 222.403 186.058 222.44C186.31 222.487 186.557 222.515 186.8 222.524C187.043 222.524 187.257 222.505 187.444 222.468C187.696 222.421 187.939 222.342 188.172 222.23C188.415 222.118 188.629 221.964 188.816 221.768C189.003 221.572 189.152 221.329 189.264 221.04C189.376 220.741 189.432 220.382 189.432 219.962C189.432 219.551 189.339 219.183 189.152 218.856C188.975 218.52 188.695 218.259 188.312 218.072C188.107 217.979 187.878 217.927 187.626 217.918C187.383 217.909 187.141 217.932 186.898 217.988C186.665 218.044 186.445 218.133 186.24 218.254C186.035 218.366 185.881 218.501 185.778 218.66H185.05L185.316 213.564H189.782V214.194H186.1Z" fill="#6F6F6F"/>
<circle cx="199" cy="212" r="2" fill="#84C3EE"/>
<path d="M232.72 213.872V214.404C232.16 214.199 231.642 214.087 231.166 214.068C230.69 214.049 230.27 214.152 229.906 214.376C229.58 214.572 229.318 214.829 229.122 215.146C228.926 215.454 228.772 215.795 228.66 216.168C228.548 216.551 228.474 216.947 228.436 217.358C228.399 217.759 228.38 218.156 228.38 218.548C228.604 218.277 228.898 218.021 229.262 217.778C229.636 217.526 230.116 217.4 230.704 217.4C231.544 217.4 232.188 217.666 232.636 218.198C233.084 218.721 233.318 219.416 233.336 220.284C233.336 221.18 233.066 221.894 232.524 222.426C231.992 222.949 231.25 223.21 230.298 223.21C229.43 223.21 228.777 222.972 228.338 222.496C227.909 222.02 227.629 221.367 227.498 220.536C227.461 220.284 227.433 219.957 227.414 219.556C227.396 219.155 227.386 218.823 227.386 218.562C227.386 218.105 227.419 217.638 227.484 217.162C227.55 216.677 227.657 216.219 227.806 215.79C227.965 215.361 228.166 214.973 228.408 214.628C228.66 214.283 228.973 214.012 229.346 213.816C229.822 213.583 230.373 213.461 230.998 213.452C231.624 213.433 232.198 213.573 232.72 213.872ZM228.366 219.29C228.366 219.654 228.385 220.032 228.422 220.424C228.469 220.807 228.562 221.161 228.702 221.488C228.842 221.815 229.038 222.085 229.29 222.3C229.552 222.505 229.906 222.608 230.354 222.608C230.7 222.617 230.994 222.561 231.236 222.44C231.488 222.319 231.694 222.151 231.852 221.936C232.011 221.731 232.128 221.493 232.202 221.222C232.286 220.942 232.328 220.648 232.328 220.34C232.328 220.051 232.291 219.766 232.216 219.486C232.151 219.206 232.048 218.959 231.908 218.744C231.768 218.529 231.586 218.357 231.362 218.226C231.148 218.095 230.886 218.03 230.578 218.03C230.336 218.03 230.107 218.072 229.892 218.156C229.678 218.24 229.472 218.343 229.276 218.464C229.09 218.585 228.917 218.721 228.758 218.87C228.609 219.019 228.478 219.159 228.366 219.29Z" fill="#6F6F6F"/>
<path d="M271.515 223.056L274.847 214.152H271.627C271.459 214.152 271.3 214.208 271.151 214.32C271.001 214.423 270.866 214.581 270.745 214.796L270.521 215.44C270.493 215.589 270.413 215.664 270.283 215.664C270.161 215.655 270.101 215.585 270.101 215.454L270.171 213.564H275.855V214.012L272.509 223.056H271.515Z" fill="#6F6F6F"/>
<path d="M315.643 223.21C314.691 223.21 313.963 222.977 313.459 222.51C312.964 222.034 312.717 221.418 312.717 220.662C312.717 219.943 312.894 219.365 313.249 218.926C313.604 218.487 314.033 218.198 314.537 218.058V218.002C314.117 217.89 313.744 217.661 313.417 217.316C313.09 216.971 312.927 216.448 312.927 215.748C312.927 215.095 313.165 214.539 313.641 214.082C314.126 213.625 314.789 213.396 315.629 213.396C316.422 213.396 317.076 213.606 317.589 214.026C318.102 214.437 318.359 215.034 318.359 215.818C318.359 216.406 318.2 216.891 317.883 217.274C317.575 217.647 317.197 217.89 316.749 218.002V218.044C316.982 218.128 317.211 218.235 317.435 218.366C317.659 218.487 317.86 218.646 318.037 218.842C318.205 219.038 318.34 219.281 318.443 219.57C318.555 219.85 318.611 220.181 318.611 220.564C318.611 221.376 318.345 222.02 317.813 222.496C317.29 222.972 316.567 223.21 315.643 223.21ZM313.865 215.804C313.865 216.047 313.898 216.285 313.963 216.518C314.038 216.751 314.145 216.961 314.285 217.148C314.434 217.335 314.616 217.484 314.831 217.596C315.055 217.708 315.321 217.764 315.629 217.764C316.189 217.764 316.623 217.605 316.931 217.288C317.239 216.961 317.393 216.467 317.393 215.804C317.393 215.272 317.239 214.829 316.931 214.474C316.623 214.119 316.189 213.942 315.629 213.942C315.078 213.942 314.644 214.11 314.327 214.446C314.019 214.782 313.865 215.235 313.865 215.804ZM313.725 220.592C313.725 221.208 313.884 221.703 314.201 222.076C314.528 222.449 315.004 222.636 315.629 222.636C316.17 222.636 316.637 222.468 317.029 222.132C317.421 221.796 317.617 221.278 317.617 220.578C317.617 219.878 317.435 219.327 317.071 218.926C316.707 218.515 316.226 218.31 315.629 218.31C315.032 218.31 314.565 218.525 314.229 218.954C313.893 219.383 313.725 219.929 313.725 220.592Z" fill="#6F6F6F"/>
<path d="M62.1431 266.156C62.1431 266.641 62.1105 267.122 62.0451 267.598C61.9798 268.065 61.8771 268.503 61.7371 268.914C61.5878 269.325 61.3871 269.698 61.1351 270.034C60.8925 270.37 60.5845 270.636 60.2111 270.832C59.7538 271.084 59.2218 271.215 58.6151 271.224C58.0178 271.233 57.4251 271.084 56.8371 270.776V270.188C56.9865 270.263 57.1731 270.333 57.3971 270.398C57.6305 270.454 57.8731 270.491 58.1251 270.51C58.3771 270.538 58.6245 270.543 58.8671 270.524C59.1191 270.496 59.3431 270.426 59.5391 270.314C59.9871 270.071 60.3371 269.731 60.5891 269.292C60.8505 268.844 61.0185 268.363 61.0931 267.85C61.1025 267.729 61.1118 267.607 61.1211 267.486C61.1305 267.355 61.1398 267.22 61.1491 267.08C61.1491 266.949 61.1491 266.809 61.1491 266.66C61.1585 266.511 61.1678 266.357 61.1771 266.198C60.9438 266.45 60.6825 266.665 60.3931 266.842C60.1038 267.019 59.8145 267.131 59.5251 267.178C59.1985 267.262 58.8485 267.271 58.4751 267.206C58.1111 267.141 57.7705 266.996 57.4531 266.772C57.1451 266.539 56.8885 266.221 56.6831 265.82C56.4778 265.409 56.3751 264.901 56.3751 264.294C56.3751 263.398 56.6225 262.693 57.1171 262.18C57.6211 261.657 58.3258 261.396 59.2311 261.396C59.8565 261.396 60.3605 261.541 60.7431 261.83C61.1258 262.119 61.4198 262.488 61.6251 262.936C61.8305 263.393 61.9658 263.907 62.0311 264.476C62.1058 265.036 62.1431 265.596 62.1431 266.156ZM61.1631 265.484C61.1445 265.167 61.1118 264.807 61.0651 264.406C61.0185 264.005 60.9298 263.622 60.7991 263.258C60.6591 262.903 60.4631 262.605 60.2111 262.362C59.9591 262.11 59.6278 261.979 59.2171 261.97C58.6291 261.97 58.1718 262.185 57.8451 262.614C57.5278 263.043 57.3691 263.585 57.3691 264.238C57.3691 264.555 57.4018 264.859 57.4671 265.148C57.5325 265.437 57.6351 265.694 57.7751 265.918C57.9151 266.133 58.0925 266.305 58.3071 266.436C58.5311 266.567 58.7925 266.632 59.0911 266.632C59.3151 266.632 59.5345 266.599 59.7491 266.534C59.9731 266.459 60.1738 266.366 60.3511 266.254C60.5378 266.142 60.7011 266.021 60.8411 265.89C60.9811 265.75 61.0885 265.615 61.1631 265.484Z" fill="#6F6F6F"/>
<path d="M98.3474 271.056V263.944C98.3474 263.916 98.3428 263.888 98.3334 263.86C98.3334 263.832 98.3334 263.799 98.3334 263.762C98.3334 263.734 98.3334 263.706 98.3334 263.678C98.3334 263.641 98.3334 263.599 98.3334 263.552C98.3334 263.244 98.2448 263.02 98.0674 262.88C97.8901 262.731 97.5914 262.726 97.1714 262.866L96.8634 262.978C96.7514 263.025 96.6721 262.992 96.6254 262.88C96.5881 262.768 96.6348 262.679 96.7654 262.614L98.9354 261.41H99.2854V271.056H98.3474ZM105.585 271.21C105.053 271.21 104.596 271.084 104.213 270.832C103.831 270.58 103.513 270.23 103.261 269.782C103.009 269.343 102.823 268.825 102.701 268.228C102.589 267.621 102.533 266.973 102.533 266.282C102.533 265.703 102.58 265.125 102.673 264.546C102.767 263.958 102.93 263.435 103.163 262.978C103.397 262.511 103.709 262.133 104.101 261.844C104.493 261.555 104.983 261.41 105.571 261.41C106.159 261.41 106.649 261.555 107.041 261.844C107.433 262.124 107.751 262.493 107.993 262.95C108.227 263.407 108.395 263.93 108.497 264.518C108.6 265.097 108.651 265.685 108.651 266.282C108.651 266.898 108.6 267.5 108.497 268.088C108.404 268.676 108.241 269.203 108.007 269.67C107.774 270.127 107.461 270.501 107.069 270.79C106.677 271.07 106.183 271.21 105.585 271.21ZM103.527 266.282C103.527 266.758 103.546 267.253 103.583 267.766C103.63 268.279 103.728 268.751 103.877 269.18C104.017 269.609 104.223 269.964 104.493 270.244C104.773 270.524 105.142 270.664 105.599 270.664C106.047 270.664 106.407 270.519 106.677 270.23C106.948 269.941 107.158 269.577 107.307 269.138C107.457 268.699 107.555 268.223 107.601 267.71C107.648 267.197 107.671 266.721 107.671 266.282C107.671 265.769 107.639 265.255 107.573 264.742C107.508 264.219 107.396 263.748 107.237 263.328C107.079 262.917 106.864 262.581 106.593 262.32C106.323 262.059 105.982 261.928 105.571 261.928C105.142 261.928 104.792 262.063 104.521 262.334C104.26 262.595 104.055 262.936 103.905 263.356C103.756 263.776 103.653 264.243 103.597 264.756C103.551 265.269 103.527 265.778 103.527 266.282Z" fill="#6F6F6F"/>
<path d="M141.062 271.056V263.944C141.062 263.916 141.057 263.888 141.048 263.86C141.048 263.832 141.048 263.799 141.048 263.762C141.048 263.734 141.048 263.706 141.048 263.678C141.048 263.641 141.048 263.599 141.048 263.552C141.048 263.244 140.959 263.02 140.782 262.88C140.604 262.731 140.306 262.726 139.886 262.866L139.578 262.978C139.466 263.025 139.386 262.992 139.34 262.88C139.302 262.768 139.349 262.679 139.48 262.614L141.65 261.41H142V271.056H141.062ZM148.062 271.056V263.944C148.062 263.916 148.057 263.888 148.048 263.86C148.048 263.832 148.048 263.799 148.048 263.762C148.048 263.734 148.048 263.706 148.048 263.678C148.048 263.641 148.048 263.599 148.048 263.552C148.048 263.244 147.959 263.02 147.782 262.88C147.604 262.731 147.306 262.726 146.886 262.866L146.578 262.978C146.466 263.025 146.386 262.992 146.34 262.88C146.302 262.768 146.349 262.679 146.48 262.614L148.65 261.41H149V271.056H148.062Z" fill="#6F6F6F"/>
<path d="M183.776 271.056V263.944C183.776 263.916 183.771 263.888 183.762 263.86C183.762 263.832 183.762 263.799 183.762 263.762C183.762 263.734 183.762 263.706 183.762 263.678C183.762 263.641 183.762 263.599 183.762 263.552C183.762 263.244 183.673 263.02 183.496 262.88C183.319 262.731 183.02 262.726 182.6 262.866L182.292 262.978C182.18 263.025 182.101 262.992 182.054 262.88C182.017 262.768 182.063 262.679 182.194 262.614L184.364 261.41H184.714V271.056H183.776ZM188.228 271.056V270.608C188.284 270.571 188.359 270.51 188.452 270.426C188.545 270.333 188.657 270.216 188.788 270.076C188.975 269.899 189.194 269.675 189.446 269.404C189.698 269.124 189.955 268.825 190.216 268.508C190.477 268.181 190.734 267.85 190.986 267.514C191.238 267.169 191.462 266.833 191.658 266.506C191.901 266.114 192.106 265.717 192.274 265.316C192.451 264.915 192.54 264.411 192.54 263.804C192.54 263.328 192.386 262.917 192.078 262.572C191.779 262.217 191.299 262.04 190.636 262.04C190.337 262.04 190.071 262.091 189.838 262.194C189.614 262.297 189.423 262.423 189.264 262.572C189.115 262.721 188.998 262.88 188.914 263.048C188.839 263.216 188.807 263.365 188.816 263.496H188.2C188.219 263.347 188.275 263.155 188.368 262.922C188.461 262.679 188.606 262.446 188.802 262.222C188.998 262.007 189.255 261.821 189.572 261.662C189.889 261.494 190.286 261.41 190.762 261.41C191.63 261.41 192.311 261.657 192.806 262.152C193.31 262.637 193.562 263.323 193.562 264.21C193.562 264.546 193.478 264.929 193.31 265.358C193.142 265.778 192.904 266.193 192.596 266.604C192.325 266.949 192.027 267.318 191.7 267.71C191.383 268.093 191.065 268.461 190.748 268.816C190.421 269.18 190.109 269.511 189.81 269.81C189.521 270.109 189.273 270.333 189.068 270.482H191.77C192.013 270.482 192.227 270.473 192.414 270.454C192.601 270.426 192.759 270.37 192.89 270.286C193.021 270.202 193.128 270.076 193.212 269.908C193.305 269.74 193.385 269.511 193.45 269.222C193.469 269.138 193.534 269.101 193.646 269.11C193.758 269.119 193.814 269.152 193.814 269.208L193.674 271.056H188.228Z" fill="#6F6F6F"/>
<path d="M226.49 271.056V263.944C226.49 263.916 226.486 263.888 226.476 263.86C226.476 263.832 226.476 263.799 226.476 263.762C226.476 263.734 226.476 263.706 226.476 263.678C226.476 263.641 226.476 263.599 226.476 263.552C226.476 263.244 226.388 263.02 226.21 262.88C226.033 262.731 225.734 262.726 225.314 262.866L225.006 262.978C224.894 263.025 224.815 262.992 224.768 262.88C224.731 262.768 224.778 262.679 224.908 262.614L227.078 261.41H227.428V271.056H226.49ZM231.53 263.188H230.928C230.947 263.029 231.003 262.852 231.096 262.656C231.19 262.451 231.334 262.259 231.53 262.082C231.726 261.905 231.978 261.755 232.286 261.634C232.604 261.503 232.996 261.429 233.462 261.41C233.789 261.41 234.12 261.461 234.456 261.564C234.792 261.667 235.091 261.816 235.352 262.012C235.623 262.208 235.842 262.455 236.01 262.754C236.178 263.053 236.262 263.403 236.262 263.804C236.262 264.392 236.108 264.882 235.8 265.274C235.502 265.666 235.114 265.918 234.638 266.03V266.086C234.844 266.142 235.049 266.226 235.254 266.338C235.469 266.45 235.66 266.604 235.828 266.8C235.996 266.996 236.132 267.239 236.234 267.528C236.337 267.808 236.388 268.149 236.388 268.55C236.388 268.998 236.295 269.39 236.108 269.726C235.922 270.053 235.67 270.328 235.352 270.552C235.026 270.776 234.652 270.939 234.232 271.042C233.812 271.154 233.364 271.21 232.888 271.21C232.459 271.21 232.044 271.14 231.642 271C231.241 270.86 230.961 270.748 230.802 270.664V270.034C230.886 270.09 231.003 270.151 231.152 270.216C231.302 270.272 231.46 270.328 231.628 270.384C231.806 270.431 231.978 270.473 232.146 270.51C232.324 270.538 232.482 270.552 232.622 270.552C232.912 270.552 233.215 270.524 233.532 270.468C233.859 270.403 234.153 270.291 234.414 270.132C234.685 269.973 234.904 269.749 235.072 269.46C235.25 269.171 235.338 268.802 235.338 268.354C235.338 267.841 235.222 267.411 234.988 267.066C234.764 266.711 234.452 266.497 234.05 266.422L233.084 266.338C233.01 266.338 232.954 266.315 232.916 266.268C232.879 266.212 232.86 266.151 232.86 266.086C232.86 266.021 232.879 265.96 232.916 265.904C232.954 265.848 233.01 265.82 233.084 265.82L233.882 265.778C234.022 265.759 234.172 265.713 234.33 265.638C234.498 265.563 234.648 265.451 234.778 265.302C234.909 265.143 235.016 264.947 235.1 264.714C235.194 264.471 235.24 264.173 235.24 263.818C235.24 263.211 235.063 262.754 234.708 262.446C234.354 262.138 233.882 261.984 233.294 261.984C232.809 261.984 232.422 262.101 232.132 262.334C231.843 262.558 231.642 262.843 231.53 263.188Z" fill="#6F6F6F"/>
<circle cx="242" cy="258" r="2" fill="#84C3EE"/>
<path d="M269.205 271.056V263.944C269.205 263.916 269.2 263.888 269.191 263.86C269.191 263.832 269.191 263.799 269.191 263.762C269.191 263.734 269.191 263.706 269.191 263.678C269.191 263.641 269.191 263.599 269.191 263.552C269.191 263.244 269.102 263.02 268.925 262.88C268.747 262.731 268.449 262.726 268.029 262.866L267.721 262.978C267.609 263.025 267.529 262.992 267.483 262.88C267.445 262.768 267.492 262.679 267.623 262.614L269.793 261.41H270.143V271.056H269.205ZM277.199 271.056V268.312H273.153V267.654L277.115 261.424H278.095V267.654H279.719V268.312H278.095V271.056H277.199ZM277.115 262.726L273.951 267.654H277.199V262.726H277.115Z" fill="#6F6F6F"/>
<path d="M311.919 271.056V263.944C311.919 263.916 311.914 263.888 311.905 263.86C311.905 263.832 311.905 263.799 311.905 263.762C311.905 263.734 311.905 263.706 311.905 263.678C311.905 263.641 311.905 263.599 311.905 263.552C311.905 263.244 311.816 263.02 311.639 262.88C311.462 262.731 311.163 262.726 310.743 262.866L310.435 262.978C310.323 263.025 310.244 262.992 310.197 262.88C310.16 262.768 310.206 262.679 310.337 262.614L312.507 261.41H312.857V271.056H311.919ZM317.743 262.194L317.561 265.75C317.664 265.694 317.818 265.629 318.023 265.554C318.238 265.479 318.48 265.419 318.751 265.372C319.031 265.325 319.325 265.307 319.633 265.316C319.95 265.325 320.268 265.391 320.585 265.512C321.024 265.68 321.383 265.993 321.663 266.45C321.952 266.907 322.097 267.435 322.097 268.032C322.097 268.797 321.887 269.446 321.467 269.978C321.047 270.501 320.52 270.846 319.885 271.014C319.493 271.126 319.12 271.182 318.765 271.182C318.41 271.191 318.084 271.168 317.785 271.112C317.486 271.056 317.22 270.986 316.987 270.902C316.763 270.818 316.581 270.734 316.441 270.65V270.062C316.572 270.146 316.749 270.221 316.973 270.286C317.206 270.351 317.449 270.403 317.701 270.44C317.953 270.487 318.2 270.515 318.443 270.524C318.686 270.524 318.9 270.505 319.087 270.468C319.339 270.421 319.582 270.342 319.815 270.23C320.058 270.118 320.272 269.964 320.459 269.768C320.646 269.572 320.795 269.329 320.907 269.04C321.019 268.741 321.075 268.382 321.075 267.962C321.075 267.551 320.982 267.183 320.795 266.856C320.618 266.52 320.338 266.259 319.955 266.072C319.75 265.979 319.521 265.927 319.269 265.918C319.026 265.909 318.784 265.932 318.541 265.988C318.308 266.044 318.088 266.133 317.883 266.254C317.678 266.366 317.524 266.501 317.421 266.66H316.693L316.959 261.564H321.425V262.194H317.743Z" fill="#6F6F6F"/>
<g clip-path="url(#clip0_59_1695)">
<rect x="45.3571" y="300.5" width="28" height="28" rx="10" fill="#84C3EE"/>
<path d="M55.3526 310.628C55.3526 310.306 55.2406 310.068 55.0306 309.928C54.8066 309.802 54.4706 309.802 53.9946 309.942L53.7426 310.026C53.6166 310.082 53.5466 310.068 53.5186 309.984C53.4906 309.9 53.5186 309.816 53.6306 309.76L55.9546 308.542H56.2486V318.328H55.3526V310.628ZM62.0871 312.938C62.4791 312.658 62.9831 312.532 63.5711 312.532C64.4391 312.532 65.1251 312.812 65.6011 313.358C66.0631 313.918 66.3011 314.632 66.3011 315.514C66.3011 316.41 66.0211 317.138 65.4611 317.67C64.9011 318.216 64.1451 318.482 63.1931 318.482C62.0731 318.482 61.2471 318.09 60.7011 317.292C60.2251 316.62 60.0011 315.444 60.0011 313.75C60.0011 313.274 60.0291 312.798 60.1131 312.294C60.1691 311.818 60.2951 311.356 60.4631 310.908C60.6171 310.488 60.8411 310.096 61.1351 309.746C61.4151 309.41 61.7511 309.13 62.1431 308.92C62.5771 308.696 63.1511 308.57 63.8511 308.556C64.5511 308.556 65.1671 308.696 65.6991 308.99V309.494C65.1671 309.298 64.6211 309.186 64.0891 309.158C63.5431 309.13 63.0671 309.242 62.6611 309.48C62.0871 309.788 61.6531 310.348 61.3451 311.146C61.1071 311.79 60.9951 312.658 60.9951 313.764C60.9951 315.374 61.1911 316.466 61.5971 317.04C61.9891 317.628 62.5491 317.908 63.2491 317.908C63.9211 317.908 64.4391 317.712 64.8171 317.292C65.1811 316.9 65.3631 316.326 65.3631 315.57C65.3491 314.954 65.1951 314.408 64.9011 313.932C64.7891 313.722 64.6071 313.54 64.3551 313.4C64.0891 313.274 63.7811 313.204 63.4171 313.204C63.0391 313.204 62.6751 313.288 62.3111 313.456C62.0731 313.568 61.9191 313.54 61.8631 313.372C61.8071 313.232 61.8771 313.078 62.0871 312.938Z" fill="white"/>
<path d="M98.0669 310.628C98.0669 310.306 97.9549 310.068 97.7449 309.928C97.5209 309.802 97.1849 309.802 96.7089 309.942L96.4569 310.026C96.3309 310.082 96.2609 310.068 96.2329 309.984C96.2049 309.9 96.2329 309.816 96.3449 309.76L98.6689 308.542H98.9629V318.328H98.0669V310.628ZM107.909 309.326H104.339C104.031 309.326 103.751 309.438 103.485 309.662C103.275 309.886 103.135 310.194 103.065 310.6C103.037 310.74 102.981 310.796 102.883 310.796C102.785 310.796 102.743 310.74 102.743 310.628L102.799 308.766H108.889V309.2L105.249 318.328H104.339L107.909 309.326Z" fill="#6F6F6F"/>
<path d="M140.781 310.628C140.781 310.306 140.669 310.068 140.459 309.928C140.235 309.802 139.899 309.802 139.423 309.942L139.171 310.026C139.045 310.082 138.975 310.068 138.947 309.984C138.919 309.9 138.947 309.816 139.059 309.76L141.383 308.542H141.677V318.328H140.781V310.628ZM148.482 318.524C147.502 318.524 146.732 318.286 146.2 317.782C145.654 317.292 145.388 316.662 145.388 315.892C145.388 315.178 145.556 314.59 145.92 314.142C146.27 313.694 146.69 313.414 147.18 313.274V313.162C146.648 313.022 146.256 312.756 146.004 312.364C145.738 311.986 145.612 311.496 145.612 310.88C145.612 310.236 145.864 309.662 146.396 309.186C146.914 308.724 147.6 308.486 148.454 308.486C149.308 308.486 150.008 308.696 150.554 309.116C151.086 309.55 151.366 310.166 151.366 310.95C151.366 311.566 151.198 312.07 150.89 312.434C150.568 312.812 150.204 313.05 149.812 313.162V313.274C150.358 313.428 150.806 313.722 151.142 314.156C151.478 314.604 151.646 315.15 151.646 315.794C151.646 316.62 151.352 317.278 150.792 317.768C150.218 318.272 149.448 318.524 148.482 318.524ZM146.536 310.936C146.536 311.202 146.564 311.454 146.648 311.692C146.704 311.944 146.83 312.154 147.012 312.35C147.18 312.546 147.404 312.7 147.67 312.798C147.922 312.91 148.174 312.952 148.454 312.952C149.056 312.952 149.532 312.798 149.896 312.462C150.246 312.14 150.428 311.636 150.428 310.936C150.428 310.376 150.26 309.914 149.938 309.536C149.602 309.172 149.098 308.99 148.454 308.99C147.824 308.99 147.348 309.172 147.026 309.508C146.69 309.872 146.536 310.348 146.536 310.936ZM146.396 315.822C146.396 316.466 146.564 316.984 146.9 317.376C147.222 317.768 147.74 317.964 148.454 317.964C149.098 317.964 149.616 317.796 150.036 317.432C150.442 317.082 150.652 316.536 150.652 315.808C150.652 315.094 150.456 314.52 150.064 314.1C149.644 313.694 149.112 313.484 148.454 313.484C147.81 313.484 147.32 313.708 146.956 314.156C146.578 314.604 146.396 315.164 146.396 315.822Z" fill="#6F6F6F"/>
<path d="M183.495 310.628C183.495 310.306 183.383 310.068 183.173 309.928C182.949 309.802 182.613 309.802 182.137 309.942L181.885 310.026C181.759 310.082 181.689 310.068 181.661 309.984C181.633 309.9 181.661 309.816 181.773 309.76L184.097 308.542H184.391V318.328H183.495V310.628ZM192.092 313.596C192.232 313.54 192.344 313.568 192.428 313.708C192.498 313.848 192.442 313.974 192.274 314.086C191.84 314.366 191.294 314.492 190.65 314.492C190.034 314.492 189.432 314.24 188.844 313.736C188.284 313.218 188.018 312.462 188.046 311.468C188.046 310.572 188.312 309.858 188.858 309.312C189.39 308.78 190.118 308.514 191.07 308.514C192.288 308.514 193.142 309.046 193.646 310.096C194.024 310.88 194.22 311.972 194.22 313.358C194.22 314.492 194.066 315.43 193.786 316.158C193.45 317.054 192.876 317.698 192.092 318.09C191.616 318.342 191.056 318.482 190.426 318.482C189.782 318.496 189.152 318.356 188.55 318.048V317.516C188.816 317.642 189.236 317.74 189.81 317.81C190.482 317.894 191.112 317.796 191.672 317.502C192.204 317.208 192.61 316.676 192.89 315.92C193.086 315.332 193.198 314.548 193.226 313.582C193.226 312.826 193.184 312.154 193.114 311.594C193.03 311.034 192.904 310.586 192.736 310.222C192.358 309.438 191.798 309.046 191.056 309.046C190.384 309.046 189.866 309.27 189.516 309.718C189.152 310.18 188.984 310.74 188.984 311.412C188.984 312.168 189.152 312.756 189.488 313.19C189.824 313.638 190.3 313.848 190.916 313.848C191.294 313.848 191.686 313.764 192.092 313.596Z" fill="#6F6F6F"/>
<path d="M223.382 317.88C224.908 316.536 226.224 315.01 227.33 313.302C227.806 312.574 228.058 311.776 228.058 310.936C228.058 310.46 227.876 310.054 227.526 309.69C227.162 309.34 226.616 309.158 225.86 309.158C225.286 309.158 224.782 309.354 224.348 309.718C224.054 309.97 223.886 310.278 223.844 310.642H223.354C223.41 310.194 223.62 309.774 223.984 309.382C224.502 308.822 225.188 308.542 226.028 308.542C226.98 308.542 227.708 308.808 228.24 309.326C228.814 309.886 229.08 310.572 229.024 311.398C228.968 312.21 228.618 313.022 228.002 313.806C226.826 315.318 225.566 316.662 224.25 317.81H227.12C227.68 317.81 228.128 317.74 228.436 317.586C228.744 317.446 228.954 317.068 229.08 316.48C229.08 316.41 229.122 316.368 229.206 316.368C229.276 316.382 229.304 316.424 229.304 316.494L229.15 318.328H223.382V317.88ZM233.98 318.482C233.392 318.496 232.916 318.37 232.524 318.104C232.132 317.852 231.796 317.516 231.516 317.068C231.278 316.62 231.096 316.088 230.984 315.472C230.858 314.856 230.802 314.198 230.802 313.484C230.802 312.896 230.858 312.294 230.97 311.692C231.082 311.104 231.25 310.586 231.502 310.11C231.754 309.662 232.076 309.284 232.482 308.99C232.874 308.71 233.364 308.556 233.952 308.542C234.512 308.556 235.002 308.696 235.422 308.976C235.814 309.27 236.15 309.634 236.402 310.082C236.654 310.544 236.836 311.076 236.962 311.664C237.074 312.28 237.144 312.882 237.144 313.484C237.144 314.114 237.074 314.73 236.962 315.332C236.836 315.948 236.654 316.48 236.402 316.942C236.15 317.418 235.814 317.782 235.422 318.062C235.016 318.356 234.54 318.496 233.98 318.482ZM231.754 313.484C231.754 313.974 231.782 314.478 231.852 314.996C231.908 315.528 232.006 316.004 232.174 316.424C232.342 316.872 232.58 317.236 232.86 317.516C233.126 317.81 233.504 317.95 233.98 317.95C234.442 317.95 234.82 317.796 235.1 317.488C235.38 317.194 235.604 316.816 235.772 316.354C235.926 315.934 236.038 315.472 236.108 314.94C236.164 314.422 236.206 313.932 236.206 313.484C236.206 312.966 236.164 312.448 236.094 311.916C236.01 311.412 235.884 310.936 235.716 310.488C235.52 310.068 235.296 309.732 235.03 309.452C234.75 309.186 234.386 309.046 233.952 309.046C233.476 309.046 233.098 309.186 232.832 309.466C232.552 309.746 232.328 310.096 232.16 310.516C231.992 310.936 231.894 311.412 231.838 311.93C231.782 312.462 231.754 312.98 231.754 313.484Z" fill="#6F6F6F"/>
<path d="M266.096 317.88C267.622 316.536 268.938 315.01 270.044 313.302C270.52 312.574 270.772 311.776 270.772 310.936C270.772 310.46 270.59 310.054 270.24 309.69C269.876 309.34 269.33 309.158 268.574 309.158C268 309.158 267.496 309.354 267.062 309.718C266.768 309.97 266.6 310.278 266.558 310.642H266.068C266.124 310.194 266.334 309.774 266.698 309.382C267.216 308.822 267.902 308.542 268.742 308.542C269.694 308.542 270.422 308.808 270.954 309.326C271.528 309.886 271.794 310.572 271.738 311.398C271.682 312.21 271.332 313.022 270.716 313.806C269.54 315.318 268.28 316.662 266.964 317.81H269.834C270.394 317.81 270.842 317.74 271.15 317.586C271.458 317.446 271.668 317.068 271.794 316.48C271.794 316.41 271.836 316.368 271.92 316.368C271.99 316.382 272.018 316.424 272.018 316.494L271.864 318.328H266.096V317.88ZM276.485 310.628C276.485 310.306 276.373 310.068 276.163 309.928C275.939 309.802 275.603 309.802 275.127 309.942L274.875 310.026C274.749 310.082 274.679 310.068 274.651 309.984C274.623 309.9 274.651 309.816 274.763 309.76L277.087 308.542H277.381V318.328H276.485V310.628Z" fill="#6F6F6F"/>
<path d="M308.81 317.88C310.336 316.536 311.652 315.01 312.758 313.302C313.234 312.574 313.486 311.776 313.486 310.936C313.486 310.46 313.304 310.054 312.954 309.69C312.59 309.34 312.044 309.158 311.288 309.158C310.714 309.158 310.21 309.354 309.776 309.718C309.482 309.97 309.314 310.278 309.272 310.642H308.782C308.838 310.194 309.048 309.774 309.412 309.382C309.93 308.822 310.616 308.542 311.456 308.542C312.408 308.542 313.136 308.808 313.668 309.326C314.242 309.886 314.508 310.572 314.452 311.398C314.396 312.21 314.046 313.022 313.43 313.806C312.254 315.318 310.994 316.662 309.678 317.81H312.548C313.108 317.81 313.556 317.74 313.864 317.586C314.172 317.446 314.382 317.068 314.508 316.48C314.508 316.41 314.55 316.368 314.634 316.368C314.704 316.382 314.732 316.424 314.732 316.494L314.578 318.328H308.81V317.88ZM316.371 317.88C317.897 316.536 319.213 315.01 320.319 313.302C320.795 312.574 321.047 311.776 321.047 310.936C321.047 310.46 320.865 310.054 320.515 309.69C320.151 309.34 319.605 309.158 318.849 309.158C318.275 309.158 317.771 309.354 317.337 309.718C317.043 309.97 316.875 310.278 316.833 310.642H316.343C316.399 310.194 316.609 309.774 316.973 309.382C317.491 308.822 318.177 308.542 319.017 308.542C319.969 308.542 320.697 308.808 321.229 309.326C321.803 309.886 322.069 310.572 322.013 311.398C321.957 312.21 321.607 313.022 320.991 313.806C319.815 315.318 318.555 316.662 317.239 317.81H320.109C320.669 317.81 321.117 317.74 321.425 317.586C321.733 317.446 321.943 317.068 322.069 316.48C322.069 316.41 322.111 316.368 322.195 316.368C322.265 316.382 322.293 316.424 322.293 316.494L322.139 318.328H316.371V317.88Z" fill="#6F6F6F"/>
</g>
<path d="M52.5246 365.88C54.0506 364.536 55.3666 363.01 56.4726 361.302C56.9486 360.574 57.2006 359.776 57.2006 358.936C57.2006 358.46 57.0186 358.054 56.6686 357.69C56.3046 357.34 55.7586 357.158 55.0026 357.158C54.4286 357.158 53.9246 357.354 53.4906 357.718C53.1966 357.97 53.0286 358.278 52.9866 358.642H52.4966C52.5526 358.194 52.7626 357.774 53.1266 357.382C53.6446 356.822 54.3306 356.542 55.1706 356.542C56.1226 356.542 56.8506 356.808 57.3826 357.326C57.9566 357.886 58.2226 358.572 58.1666 359.398C58.1106 360.21 57.7606 361.022 57.1446 361.806C55.9686 363.318 54.7086 364.662 53.3926 365.81H56.2626C56.8226 365.81 57.2706 365.74 57.5786 365.586C57.8866 365.446 58.0966 365.068 58.2226 364.48C58.2226 364.41 58.2646 364.368 58.3486 364.368C58.4186 364.382 58.4466 364.424 58.4466 364.494L58.2926 366.328H52.5246V365.88ZM60.0851 358.32C60.1551 357.9 60.3651 357.55 60.7011 357.242C60.9111 357.046 61.1911 356.878 61.5551 356.738C61.9051 356.612 62.3111 356.542 62.7591 356.542C63.0811 356.542 63.4171 356.598 63.7811 356.682C64.1171 356.794 64.4391 356.948 64.7471 357.144C65.0271 357.354 65.2511 357.606 65.4471 357.9C65.6151 358.208 65.7131 358.558 65.7131 358.964C65.7131 359.552 65.5591 360.042 65.2651 360.406C64.9571 360.798 64.5371 361.05 64.0191 361.162V361.344C64.2851 361.428 64.5091 361.512 64.7051 361.596C64.8871 361.708 65.0691 361.848 65.2371 362.03C65.6571 362.45 65.8671 363.024 65.8671 363.78C65.8671 364.242 65.7551 364.634 65.5591 364.956C65.3351 365.292 65.0691 365.586 64.7331 365.81C64.3831 366.034 63.9911 366.188 63.5431 366.3C63.0811 366.426 62.6051 366.482 62.1291 366.482C61.4011 366.482 60.6731 366.3 59.9451 365.936V365.334C60.4631 365.628 61.0931 365.796 61.8211 365.852C62.5491 365.88 63.2211 365.726 63.8091 365.418C64.0891 365.25 64.3411 365.012 64.5511 364.704C64.7471 364.41 64.8591 364.032 64.8591 363.57C64.8591 363.066 64.7331 362.618 64.4811 362.254C64.2291 361.904 63.8651 361.694 63.4171 361.624C63.0251 361.568 62.6891 361.54 62.4231 361.54C62.2411 361.54 62.1571 361.456 62.1571 361.274C62.1571 361.106 62.2131 361.008 62.3531 361.008C62.3531 361.008 62.4651 361.008 62.6891 360.994C62.8991 360.994 63.0811 360.994 63.2491 360.966C63.3891 360.952 63.5571 360.91 63.7391 360.826C63.9071 360.756 64.0751 360.644 64.2431 360.49C64.3551 360.336 64.4811 360.14 64.5931 359.888C64.6911 359.664 64.7471 359.356 64.7471 358.992C64.7471 358.362 64.5371 357.886 64.1171 357.564C63.6831 357.256 63.1371 357.102 62.4791 357.102C61.9331 357.102 61.5131 357.228 61.2331 357.452C60.9251 357.704 60.7151 357.984 60.5751 358.32H60.0851Z" fill="#6F6F6F"/>
<path d="M95.2389 365.88C96.7649 364.536 98.0809 363.01 99.1869 361.302C99.6629 360.574 99.9149 359.776 99.9149 358.936C99.9149 358.46 99.7329 358.054 99.3829 357.69C99.0189 357.34 98.4729 357.158 97.7169 357.158C97.1429 357.158 96.6389 357.354 96.2049 357.718C95.9109 357.97 95.7429 358.278 95.7009 358.642H95.2109C95.2669 358.194 95.4769 357.774 95.8409 357.382C96.3589 356.822 97.0449 356.542 97.8849 356.542C98.8369 356.542 99.5649 356.808 100.097 357.326C100.671 357.886 100.937 358.572 100.881 359.398C100.825 360.21 100.475 361.022 99.8589 361.806C98.6829 363.318 97.4229 364.662 96.1069 365.81H98.9769C99.5369 365.81 99.9849 365.74 100.293 365.586C100.601 365.446 100.811 365.068 100.937 364.48C100.937 364.41 100.979 364.368 101.063 364.368C101.133 364.382 101.161 364.424 101.161 364.494L101.007 366.328H95.2389V365.88ZM106.859 363.542H102.491V362.87L106.747 356.542H107.699V362.926H109.155V363.542H107.699V366.328H106.859V363.542ZM103.261 362.926H106.859V357.928H106.607L103.261 362.926Z" fill="#6F6F6F"/>
<path d="M137.953 365.88C139.479 364.536 140.795 363.01 141.901 361.302C142.377 360.574 142.629 359.776 142.629 358.936C142.629 358.46 142.447 358.054 142.097 357.69C141.733 357.34 141.187 357.158 140.431 357.158C139.857 357.158 139.353 357.354 138.919 357.718C138.625 357.97 138.457 358.278 138.415 358.642H137.925C137.981 358.194 138.191 357.774 138.555 357.382C139.073 356.822 139.759 356.542 140.599 356.542C141.551 356.542 142.279 356.808 142.811 357.326C143.385 357.886 143.651 358.572 143.595 359.398C143.539 360.21 143.189 361.022 142.573 361.806C141.397 363.318 140.137 364.662 138.821 365.81H141.691C142.251 365.81 142.699 365.74 143.007 365.586C143.315 365.446 143.525 365.068 143.651 364.48C143.651 364.41 143.693 364.368 143.777 364.368C143.847 364.382 143.875 364.424 143.875 364.494L143.721 366.328H137.953V365.88ZM146.606 361.134C147.096 360.798 147.614 360.588 148.174 360.532C148.734 360.476 149.308 360.56 149.882 360.784C150.33 360.952 150.708 361.246 151.03 361.694C151.338 362.156 151.492 362.688 151.492 363.304C151.492 364.088 151.254 364.746 150.806 365.264C150.344 365.796 149.784 366.146 149.14 366.314C148.496 366.482 147.838 366.538 147.166 366.454C146.536 366.398 145.976 366.23 145.486 365.964V365.39C145.794 365.558 146.186 365.67 146.69 365.754C147.18 365.838 147.712 365.852 148.3 365.782C148.86 365.726 149.35 365.488 149.784 365.096C149.98 364.886 150.148 364.634 150.288 364.326C150.428 364.046 150.498 363.682 150.498 363.248C150.498 362.828 150.386 362.436 150.19 362.1C149.966 361.778 149.658 361.512 149.238 361.316C149.014 361.218 148.762 361.162 148.482 361.162C148.174 361.176 147.894 361.204 147.628 361.26C147.18 361.372 146.774 361.596 146.438 361.96H145.766L146.032 356.766H150.764V357.382H146.844L146.606 361.134Z" fill="#6F6F6F"/>
<path d="M180.667 365.88C182.193 364.536 183.509 363.01 184.615 361.302C185.091 360.574 185.343 359.776 185.343 358.936C185.343 358.46 185.161 358.054 184.811 357.69C184.447 357.34 183.901 357.158 183.145 357.158C182.571 357.158 182.067 357.354 181.633 357.718C181.339 357.97 181.171 358.278 181.129 358.642H180.639C180.695 358.194 180.905 357.774 181.269 357.382C181.787 356.822 182.473 356.542 183.313 356.542C184.265 356.542 184.993 356.808 185.525 357.326C186.099 357.886 186.365 358.572 186.309 359.398C186.253 360.21 185.903 361.022 185.287 361.806C184.111 363.318 182.851 364.662 181.535 365.81H184.405C184.965 365.81 185.413 365.74 185.721 365.586C186.029 365.446 186.239 365.068 186.365 364.48C186.365 364.41 186.407 364.368 186.491 364.368C186.561 364.382 186.589 364.424 186.589 364.494L186.435 366.328H180.667V365.88ZM190.23 360.938C190.622 360.658 191.126 360.532 191.714 360.532C192.582 360.532 193.268 360.812 193.744 361.358C194.206 361.918 194.444 362.632 194.444 363.514C194.444 364.41 194.164 365.138 193.604 365.67C193.044 366.216 192.288 366.482 191.336 366.482C190.216 366.482 189.39 366.09 188.844 365.292C188.368 364.62 188.144 363.444 188.144 361.75C188.144 361.274 188.172 360.798 188.256 360.294C188.312 359.818 188.438 359.356 188.606 358.908C188.76 358.488 188.984 358.096 189.278 357.746C189.558 357.41 189.894 357.13 190.286 356.92C190.72 356.696 191.294 356.57 191.994 356.556C192.694 356.556 193.31 356.696 193.842 356.99V357.494C193.31 357.298 192.764 357.186 192.232 357.158C191.686 357.13 191.21 357.242 190.804 357.48C190.23 357.788 189.796 358.348 189.488 359.146C189.25 359.79 189.138 360.658 189.138 361.764C189.138 363.374 189.334 364.466 189.74 365.04C190.132 365.628 190.692 365.908 191.392 365.908C192.064 365.908 192.582 365.712 192.96 365.292C193.324 364.9 193.506 364.326 193.506 363.57C193.492 362.954 193.338 362.408 193.044 361.932C192.932 361.722 192.75 361.54 192.498 361.4C192.232 361.274 191.924 361.204 191.56 361.204C191.182 361.204 190.818 361.288 190.454 361.456C190.216 361.568 190.062 361.54 190.006 361.372C189.95 361.232 190.02 361.078 190.23 360.938Z" fill="#6F6F6F"/>
<path d="M223.382 365.88C224.908 364.536 226.224 363.01 227.33 361.302C227.806 360.574 228.058 359.776 228.058 358.936C228.058 358.46 227.876 358.054 227.526 357.69C227.162 357.34 226.616 357.158 225.86 357.158C225.286 357.158 224.782 357.354 224.348 357.718C224.054 357.97 223.886 358.278 223.844 358.642H223.354C223.41 358.194 223.62 357.774 223.984 357.382C224.502 356.822 225.188 356.542 226.028 356.542C226.98 356.542 227.708 356.808 228.24 357.326C228.814 357.886 229.08 358.572 229.024 359.398C228.968 360.21 228.618 361.022 228.002 361.806C226.826 363.318 225.566 364.662 224.25 365.81H227.12C227.68 365.81 228.128 365.74 228.436 365.586C228.744 365.446 228.954 365.068 229.08 364.48C229.08 364.41 229.122 364.368 229.206 364.368C229.276 364.382 229.304 364.424 229.304 364.494L229.15 366.328H223.382V365.88ZM236.052 357.326H232.482C232.174 357.326 231.894 357.438 231.628 357.662C231.418 357.886 231.278 358.194 231.208 358.6C231.18 358.74 231.124 358.796 231.026 358.796C230.928 358.796 230.886 358.74 230.886 358.628L230.942 356.766H237.032V357.2L233.392 366.328H232.482L236.052 357.326Z" fill="#6F6F6F"/>
<path d="M266.096 365.88C267.622 364.536 268.938 363.01 270.044 361.302C270.52 360.574 270.772 359.776 270.772 358.936C270.772 358.46 270.59 358.054 270.24 357.69C269.876 357.34 269.33 357.158 268.574 357.158C268 357.158 267.496 357.354 267.062 357.718C266.768 357.97 266.6 358.278 266.558 358.642H266.068C266.124 358.194 266.334 357.774 266.698 357.382C267.216 356.822 267.902 356.542 268.742 356.542C269.694 356.542 270.422 356.808 270.954 357.326C271.528 357.886 271.794 358.572 271.738 359.398C271.682 360.21 271.332 361.022 270.716 361.806C269.54 363.318 268.28 364.662 266.964 365.81H269.834C270.394 365.81 270.842 365.74 271.15 365.586C271.458 365.446 271.668 365.068 271.794 364.48C271.794 364.41 271.836 364.368 271.92 364.368C271.99 364.382 272.018 364.424 272.018 364.494L271.864 366.328H266.096V365.88ZM276.625 366.524C275.645 366.524 274.875 366.286 274.343 365.782C273.797 365.292 273.531 364.662 273.531 363.892C273.531 363.178 273.699 362.59 274.063 362.142C274.413 361.694 274.833 361.414 275.323 361.274V361.162C274.791 361.022 274.399 360.756 274.147 360.364C273.881 359.986 273.755 359.496 273.755 358.88C273.755 358.236 274.007 357.662 274.539 357.186C275.057 356.724 275.743 356.486 276.597 356.486C277.451 356.486 278.151 356.696 278.697 357.116C279.229 357.55 279.509 358.166 279.509 358.95C279.509 359.566 279.341 360.07 279.033 360.434C278.711 360.812 278.347 361.05 277.955 361.162V361.274C278.501 361.428 278.949 361.722 279.285 362.156C279.621 362.604 279.789 363.15 279.789 363.794C279.789 364.62 279.495 365.278 278.935 365.768C278.361 366.272 277.591 366.524 276.625 366.524ZM274.679 358.936C274.679 359.202 274.707 359.454 274.791 359.692C274.847 359.944 274.973 360.154 275.155 360.35C275.323 360.546 275.547 360.7 275.813 360.798C276.065 360.91 276.317 360.952 276.597 360.952C277.199 360.952 277.675 360.798 278.039 360.462C278.389 360.14 278.571 359.636 278.571 358.936C278.571 358.376 278.403 357.914 278.081 357.536C277.745 357.172 277.241 356.99 276.597 356.99C275.967 356.99 275.491 357.172 275.169 357.508C274.833 357.872 274.679 358.348 274.679 358.936ZM274.539 363.822C274.539 364.466 274.707 364.984 275.043 365.376C275.365 365.768 275.883 365.964 276.597 365.964C277.241 365.964 277.759 365.796 278.179 365.432C278.585 365.082 278.795 364.536 278.795 363.808C278.795 363.094 278.599 362.52 278.207 362.1C277.787 361.694 277.255 361.484 276.597 361.484C275.953 361.484 275.463 361.708 275.099 362.156C274.721 362.604 274.539 363.164 274.539 363.822Z" fill="#6F6F6F"/>
<path d="M125.455 408.484H120.991V412.966C120.991 413.026 120.985 413.08 120.973 413.128C120.973 413.176 120.967 413.224 120.955 413.272C120.955 413.32 120.949 413.374 120.937 413.434C120.925 413.482 120.919 413.53 120.919 413.578H125.455V408.484ZM126.517 414.46H120.703C120.643 414.604 120.565 414.724 120.469 414.82C120.385 414.916 120.307 414.964 120.235 414.964H119.875V409.168C119.875 408.844 119.821 408.628 119.713 408.52C119.617 408.4 119.455 408.304 119.227 408.232C119.083 408.196 118.975 408.154 118.903 408.106C118.843 408.058 118.813 407.98 118.813 407.872C118.813 407.74 118.849 407.656 118.921 407.62C118.993 407.572 119.107 407.548 119.263 407.548H126.013C126.229 407.548 126.373 407.614 126.445 407.746C126.529 407.878 126.571 408.016 126.571 408.16V412.246C126.571 412.522 126.553 412.768 126.517 412.984C126.493 413.188 126.427 413.392 126.319 413.596H126.463C126.643 413.596 126.763 413.644 126.823 413.74C126.883 413.836 126.913 413.938 126.913 414.046C126.913 414.166 126.883 414.268 126.823 414.352C126.763 414.424 126.661 414.46 126.517 414.46ZM131.269 406.468V410.554H134.257C134.377 410.554 134.473 410.596 134.545 410.68C134.629 410.752 134.671 410.866 134.671 411.022C134.671 411.166 134.629 411.28 134.545 411.364C134.473 411.436 134.377 411.472 134.257 411.472H131.269V416.026C131.269 416.626 131.191 417.046 131.035 417.286C130.891 417.526 130.693 417.646 130.441 417.646H130.171V407.404C130.171 407.044 130.069 406.804 129.865 406.684C129.673 406.552 129.427 406.456 129.127 406.396C128.875 406.36 128.707 406.318 128.623 406.27C128.551 406.21 128.515 406.132 128.515 406.036C128.515 405.928 128.557 405.85 128.641 405.802C128.725 405.754 128.845 405.73 129.001 405.73H130.621C130.837 405.73 130.999 405.802 131.107 405.946C131.215 406.078 131.269 406.252 131.269 406.468ZM123.403 420.886V418.6C123.403 418.264 123.319 418.036 123.151 417.916C122.995 417.796 122.773 417.694 122.485 417.61C122.221 417.574 122.059 417.532 121.999 417.484C121.939 417.424 121.909 417.34 121.909 417.232C121.909 417.124 121.957 417.046 122.053 416.998C122.149 416.938 122.269 416.908 122.413 416.908H123.835C124.039 416.908 124.201 416.98 124.321 417.124C124.441 417.268 124.501 417.448 124.501 417.664V420.958C124.501 421.09 124.531 421.198 124.591 421.282C124.663 421.366 124.771 421.408 124.915 421.408H131.197C131.377 421.408 131.509 421.456 131.593 421.552C131.689 421.648 131.737 421.75 131.737 421.858C131.737 421.978 131.689 422.086 131.593 422.182C131.509 422.29 131.383 422.344 131.215 422.344H125.113C124.501 422.344 124.057 422.248 123.781 422.056C123.517 421.864 123.391 421.474 123.403 420.886ZM136.384 413.038V408.97C136.384 408.682 136.336 408.466 136.24 408.322C136.156 408.166 135.976 408.052 135.7 407.98C135.52 407.944 135.394 407.908 135.322 407.872C135.25 407.824 135.214 407.74 135.214 407.62C135.214 407.5 135.25 407.422 135.322 407.386C135.394 407.35 135.496 407.332 135.628 407.332H136.87C137.074 407.332 137.224 407.404 137.32 407.548C137.428 407.692 137.482 407.872 137.482 408.088V413.074C137.482 413.194 137.506 413.308 137.554 413.416C137.614 413.524 137.716 413.578 137.86 413.578H143.62C143.8 413.578 143.932 413.632 144.016 413.74C144.1 413.836 144.142 413.938 144.142 414.046C144.142 414.178 144.1 414.286 144.016 414.37C143.944 414.442 143.818 414.478 143.638 414.478H138.076C137.464 414.478 137.026 414.4 136.762 414.244C136.51 414.088 136.384 413.686 136.384 413.038ZM147.652 406.468V410.554H150.64C150.76 410.554 150.856 410.596 150.928 410.68C151.012 410.752 151.054 410.866 151.054 411.022C151.054 411.166 151.012 411.28 150.928 411.364C150.856 411.436 150.76 411.472 150.64 411.472H147.652V416.026C147.652 416.626 147.574 417.046 147.418 417.286C147.274 417.526 147.076 417.646 146.824 417.646H146.554V407.404C146.554 407.044 146.452 406.804 146.248 406.684C146.056 406.552 145.81 406.456 145.51 406.396C145.258 406.36 145.09 406.318 145.006 406.27C144.934 406.21 144.898 406.132 144.898 406.036C144.898 405.928 144.94 405.85 145.024 405.802C145.108 405.754 145.228 405.73 145.384 405.73H147.004C147.22 405.73 147.382 405.802 147.49 405.946C147.598 406.078 147.652 406.252 147.652 406.468ZM139.786 420.886V418.6C139.786 418.264 139.702 418.036 139.534 417.916C139.378 417.796 139.156 417.694 138.868 417.61C138.604 417.574 138.442 417.532 138.382 417.484C138.322 417.424 138.292 417.34 138.292 417.232C138.292 417.124 138.34 417.046 138.436 416.998C138.532 416.938 138.652 416.908 138.796 416.908H140.218C140.422 416.908 140.584 416.98 140.704 417.124C140.824 417.268 140.884 417.448 140.884 417.664V420.958C140.884 421.09 140.914 421.198 140.974 421.282C141.046 421.366 141.154 421.408 141.298 421.408H147.58C147.76 421.408 147.892 421.456 147.976 421.552C148.072 421.648 148.12 421.75 148.12 421.858C148.12 421.978 148.072 422.086 147.976 422.182C147.892 422.29 147.766 422.344 147.598 422.344H141.496C140.884 422.344 140.44 422.248 140.164 422.056C139.9 421.864 139.774 421.474 139.786 420.886ZM152.856 408.34H158.562C158.826 408.34 159 408.442 159.084 408.646C159.168 408.85 159.192 409.024 159.156 409.168C159.012 409.804 158.772 410.422 158.436 411.022C158.112 411.622 157.728 412.192 157.284 412.732L160.326 415.288C160.41 415.384 160.47 415.492 160.506 415.612C160.542 415.72 160.56 415.81 160.56 415.882C160.56 416.038 160.512 416.17 160.416 416.278C160.332 416.386 160.218 416.458 160.074 416.494C159.978 416.53 159.876 416.542 159.768 416.53C159.66 416.506 159.558 416.44 159.462 416.332L156.618 413.47C155.934 414.19 155.208 414.82 154.44 415.36C153.684 415.9 152.982 416.314 152.334 416.602C152.13 416.698 151.98 416.656 151.884 416.476C151.788 416.296 151.842 416.146 152.046 416.026C152.526 415.75 153.054 415.366 153.63 414.874C154.218 414.37 154.788 413.812 155.34 413.2C155.892 412.588 156.384 411.946 156.816 411.274C157.248 410.59 157.554 409.918 157.734 409.258H152.838C152.658 409.258 152.532 409.216 152.46 409.132C152.388 409.036 152.352 408.928 152.352 408.808C152.352 408.7 152.388 408.598 152.46 408.502C152.544 408.394 152.676 408.34 152.856 408.34ZM164.358 406.468V419.68C164.358 420.256 164.274 420.67 164.106 420.922C163.95 421.174 163.752 421.3 163.512 421.3H163.242V407.404C163.242 407.056 163.14 406.816 162.936 406.684C162.744 406.552 162.492 406.456 162.18 406.396C161.94 406.36 161.778 406.318 161.694 406.27C161.622 406.222 161.586 406.15 161.586 406.054C161.586 405.946 161.628 405.868 161.712 405.82C161.808 405.76 161.928 405.73 162.072 405.73H163.692C163.908 405.73 164.07 405.802 164.178 405.946C164.298 406.078 164.358 406.252 164.358 406.468Z" fill="#5C5C5C"/>
<path d="M179.5 420.42L184.2 407.68H180.08C179.867 407.68 179.673 407.733 179.5 407.84C179.34 407.947 179.18 408.133 179.02 408.4C178.967 408.52 178.907 408.693 178.84 408.92C178.787 409.147 178.76 409.26 178.76 409.26C178.72 409.447 178.633 409.58 178.5 409.66C178.38 409.74 178.253 409.773 178.12 409.76C177.973 409.747 177.84 409.693 177.72 409.6C177.613 409.507 177.56 409.38 177.56 409.22L177.66 406.28H186.5V407.3L181.6 420.42H179.5ZM189.1 409.26H187.66C187.687 408.967 187.78 408.633 187.94 408.26C188.1 407.887 188.34 407.54 188.66 407.22C188.98 406.9 189.387 406.633 189.88 406.42C190.373 406.193 190.973 406.08 191.68 406.08C192.253 406.08 192.807 406.16 193.34 406.32C193.873 406.48 194.34 406.72 194.74 407.04C195.14 407.36 195.46 407.76 195.7 408.24C195.94 408.707 196.06 409.247 196.06 409.86C196.06 410.313 195.98 410.727 195.82 411.1C195.66 411.46 195.467 411.773 195.24 412.04C195.013 412.32 194.773 412.54 194.52 412.7C194.267 412.86 194.04 412.96 193.84 413C194.053 413.067 194.3 413.18 194.58 413.34C194.86 413.5 195.12 413.72 195.36 414C195.6 414.28 195.807 414.627 195.98 415.04C196.153 415.453 196.24 415.94 196.24 416.5C196.24 417.18 196.093 417.78 195.8 418.3C195.507 418.82 195.113 419.247 194.62 419.58C194.127 419.927 193.553 420.187 192.9 420.36C192.247 420.533 191.567 420.62 190.86 420.62C190.22 420.62 189.587 420.533 188.96 420.36C188.347 420.2 187.873 419.987 187.54 419.72V418.14C187.927 418.447 188.42 418.687 189.02 418.86C189.633 419.033 190.16 419.12 190.6 419.12C190.987 419.12 191.38 419.08 191.78 419C192.193 418.92 192.56 418.773 192.88 418.56C193.213 418.333 193.487 418.033 193.7 417.66C193.913 417.287 194.02 416.8 194.02 416.2C194.02 415.52 193.847 414.967 193.5 414.54C193.153 414.113 192.74 413.86 192.26 413.78C192.1 413.753 191.873 413.733 191.58 413.72C191.3 413.693 191.16 413.68 191.16 413.68C190.96 413.68 190.807 413.613 190.7 413.48C190.607 413.333 190.56 413.173 190.56 413C190.56 412.827 190.607 412.667 190.7 412.52C190.807 412.373 190.96 412.3 191.16 412.3C191.16 412.3 191.26 412.3 191.46 412.3C191.66 412.287 191.847 412.267 192.02 412.24C192.207 412.213 192.407 412.16 192.62 412.08C192.847 412 193.053 411.873 193.24 411.7C193.413 411.527 193.56 411.3 193.68 411.02C193.813 410.727 193.88 410.347 193.88 409.88C193.88 409.08 193.653 408.48 193.2 408.08C192.747 407.68 192.14 407.48 191.38 407.48C190.793 407.48 190.293 407.667 189.88 408.04C189.48 408.4 189.22 408.807 189.1 409.26ZM201.32 420.42V409.96C201.32 409.373 201.253 408.973 201.12 408.76C201 408.533 200.667 408.52 200.12 408.72C200.013 408.76 199.913 408.8 199.82 408.84C199.727 408.867 199.68 408.88 199.68 408.88C199.52 408.933 199.373 408.927 199.24 408.86C199.12 408.78 199.033 408.68 198.98 408.56C198.913 408.44 198.893 408.313 198.92 408.18C198.96 408.047 199.067 407.94 199.24 407.86L202.4 406.08H203.38V420.42H201.32ZM210.26 407.82L210.02 411.98C210.1 411.927 210.327 411.833 210.7 411.7C211.073 411.553 211.5 411.473 211.98 411.46C212.633 411.447 213.233 411.547 213.78 411.76C214.34 411.96 214.82 412.26 215.22 412.66C215.62 413.047 215.927 413.513 216.14 414.06C216.367 414.607 216.48 415.2 216.48 415.84C216.48 416.627 216.333 417.32 216.04 417.92C215.747 418.507 215.353 419 214.86 419.4C214.367 419.8 213.807 420.1 213.18 420.3C212.553 420.513 211.9 420.62 211.22 420.62C210.46 420.62 209.787 420.553 209.2 420.42C208.627 420.287 208.12 420.067 207.68 419.76V418.2C208.16 418.52 208.713 418.747 209.34 418.88C209.98 419.013 210.547 419.08 211.04 419.08C212.08 419.08 212.88 418.767 213.44 418.14C214.013 417.5 214.3 416.7 214.3 415.74C214.3 414.993 214.073 414.34 213.62 413.78C213.18 413.207 212.6 412.92 211.88 412.92C211.44 412.92 211.007 413.02 210.58 413.22C210.153 413.42 209.82 413.7 209.58 414.06H208.04L208.42 406.28H215.52V407.82H210.26Z" fill="#84C3EE"/>
<path d="M226.787 409.51C226.787 409.168 226.715 408.826 226.589 408.502C226.445 408.196 226.247 407.926 226.013 407.692C225.761 407.458 225.491 407.26 225.167 407.116C224.843 406.99 224.483 406.918 224.123 406.918C223.745 406.918 223.403 406.99 223.097 407.116C222.773 407.26 222.485 407.458 222.233 407.692C221.999 407.926 221.819 408.196 221.693 408.502C221.549 408.826 221.477 409.168 221.477 409.51C221.477 409.87 221.549 410.176 221.693 410.464C221.819 410.752 221.999 411.022 222.233 411.238C222.485 411.49 222.773 411.67 223.097 411.796C223.403 411.94 223.745 412.012 224.123 412.012C224.483 412.012 224.843 411.94 225.167 411.796C225.491 411.67 225.761 411.49 226.013 411.238C226.247 411.022 226.445 410.752 226.589 410.464C226.715 410.176 226.787 409.87 226.787 409.51ZM227.903 409.474C227.903 409.96 227.795 410.41 227.597 410.824C227.381 411.256 227.111 411.616 226.769 411.94C226.427 412.264 226.031 412.498 225.581 412.678C225.113 412.876 224.627 412.966 224.123 412.966C223.601 412.966 223.115 412.876 222.683 412.678C222.215 412.498 221.819 412.264 221.477 411.94C221.135 411.616 220.865 411.256 220.667 410.824C220.451 410.41 220.361 409.96 220.361 409.474C220.361 409.006 220.451 408.538 220.667 408.106C220.865 407.692 221.135 407.314 221.477 406.99C221.819 406.684 222.215 406.432 222.683 406.234C223.115 406.054 223.601 405.964 224.123 405.964C224.627 405.964 225.113 406.054 225.581 406.234C226.031 406.432 226.427 406.684 226.769 406.99C227.111 407.314 227.381 407.692 227.597 408.106C227.795 408.538 227.903 409.006 227.903 409.474ZM231.377 406.45C231.377 406.108 231.269 405.856 231.089 405.712C230.873 405.586 230.639 405.496 230.369 405.424C230.081 405.37 229.883 405.316 229.811 405.262C229.721 405.226 229.685 405.154 229.685 405.064C229.685 404.866 229.847 404.758 230.189 404.758H231.809C232.277 404.758 232.511 405.01 232.511 405.496V411.814C232.511 412.894 232.223 413.434 231.647 413.434H231.377V406.45ZM224.501 417.394H230.999V415.36H225.023C224.591 415.36 224.393 415.216 224.393 414.892C224.393 414.604 224.573 414.442 224.969 414.442H231.449C231.899 414.442 232.133 414.694 232.133 415.162V417.43C232.133 418.006 231.863 418.294 231.323 418.294H226.103V419.824C226.103 420.184 226.247 420.364 226.571 420.364H232.097C232.511 420.364 232.727 420.508 232.727 420.814C232.727 421.12 232.511 421.282 232.115 421.282H225.977C225.293 421.282 224.969 420.886 224.969 420.13V418.798C224.969 418.348 224.717 418.078 224.249 417.988C224.177 417.988 224.105 417.952 224.069 417.898C223.997 417.862 223.979 417.79 223.979 417.682C223.979 417.502 224.141 417.394 224.501 417.394ZM249.26 415.684C248.954 415.828 248.702 415.738 248.522 415.414L247.118 412.876C246.326 414.406 245.498 415.558 244.67 416.35C244.418 416.602 244.184 416.656 244.004 416.548C243.806 416.44 243.788 416.278 243.95 416.062C244.328 415.54 244.724 414.946 245.12 414.28L243.734 412.084C243.698 412.174 243.662 412.246 243.626 412.318C242.924 413.632 242.222 414.604 241.502 415.252C241.25 415.468 241.034 415.522 240.854 415.396C240.674 415.288 240.692 415.09 240.926 414.802C241.61 413.956 242.24 412.948 242.816 411.796C243.392 410.662 243.788 409.492 244.04 408.286H242.204C241.772 408.286 241.574 408.142 241.574 407.818C241.574 407.53 241.754 407.368 242.132 407.368H248.126C248.414 407.368 248.612 407.44 248.72 407.548C248.81 407.692 248.828 407.908 248.792 408.214C248.54 409.492 248.108 410.788 247.496 412.084L249.386 414.748C249.656 415.18 249.62 415.486 249.26 415.684ZM244.04 411.454L245.606 413.434C245.75 413.146 245.912 412.84 246.092 412.516C246.812 411.112 247.28 409.708 247.514 408.286H245.174C244.886 409.366 244.508 410.428 244.04 411.454ZM255.254 405.496V418.618C255.254 419.698 254.948 420.238 254.354 420.238H254.12V411.382H251.726V417.538C251.726 418.618 251.438 419.158 250.88 419.158H250.628V407.188C250.628 406.846 250.538 406.612 250.358 406.468C250.178 406.36 249.926 406.252 249.602 406.162C249.35 406.108 249.188 406.054 249.116 405.982C249.026 405.946 248.99 405.874 248.99 405.784C248.99 405.604 249.152 405.514 249.494 405.514H251.06C251.492 405.514 251.726 405.766 251.726 406.27V410.482H254.12V406.45C254.12 406.09 254.03 405.838 253.85 405.694C253.652 405.568 253.382 405.478 253.04 405.406C252.788 405.37 252.626 405.316 252.554 405.262C252.464 405.226 252.428 405.154 252.428 405.064C252.428 404.866 252.59 404.758 252.95 404.758H254.552C255.02 404.758 255.254 405.01 255.254 405.496Z" fill="#5C5C5C"/>
<defs>
<clipPath id="clip0_59_1695">
<rect width="319" height="33" fill="white" transform="translate(28 298)"/>
</clipPath>
</defs>
</svg>
