<svg width="19" height="19" viewBox="0 0 19 19" fill="none" xmlns="http://www.w3.org/2000/svg">
<path fill-rule="evenodd" clip-rule="evenodd" d="M13.625 5H15.125C15.9534 5 16.625 5.67157 16.625 6.5V15.5C16.625 16.3284 15.9534 17 15.125 17H7.625C6.79657 17 6.125 16.3284 6.125 15.5V14H3.875C3.04657 14 2.375 13.3284 2.375 12.5V3.5C2.375 2.67157 3.04657 2 3.875 2H12.125C12.9534 2 13.625 2.67157 13.625 3.5V5ZM12.125 3.2H3.875C3.70931 3.2 3.575 3.33431 3.575 3.5V12.5C3.575 12.6657 3.70931 12.8 3.875 12.8H6.125V6.5C6.125 5.67157 6.79657 5 7.625 5H12.425V3.5C12.425 3.33431 12.2907 3.2 12.125 3.2ZM7.625 6.2H15.125C15.2907 6.2 15.425 6.33431 15.425 6.5V15.5C15.425 15.6657 15.2907 15.8 15.125 15.8H7.625C7.45931 15.8 7.325 15.6657 7.325 15.5V6.5C7.325 6.33431 7.45931 6.2 7.625 6.2Z" fill="#5C5C5C"/>
</svg>
