<svg width="33" height="32" viewBox="0 0 33 32" fill="none" xmlns="http://www.w3.org/2000/svg">
<path fill-rule="evenodd" clip-rule="evenodd" d="M7.16662 2.66699C5.10476 2.66699 3.43329 4.33846 3.43329 6.40033V25.067C3.43329 27.1289 5.10476 28.8003 7.16662 28.8003H25.8333C27.8951 28.8003 29.5666 27.1289 29.5666 25.067V6.40033C29.5666 4.33846 27.8952 2.66699 25.8333 2.66699H7.16662ZM10.1 10.4003C10.1 9.81122 10.5775 9.33366 11.1666 9.33366H21.8333C22.4224 9.33366 22.9 9.81122 22.9 10.4003C22.9 10.9894 22.4224 11.467 21.8333 11.467H11.1666C10.5775 11.467 10.1 10.9894 10.1 10.4003ZM10.1 15.7337C10.1 15.1446 10.5775 14.667 11.1666 14.667H21.8333C22.4224 14.667 22.9 15.1446 22.9 15.7337C22.9 16.3228 22.4224 16.8003 21.8333 16.8003H11.1666C10.5775 16.8003 10.1 16.3228 10.1 15.7337ZM11.1666 20.0003C10.5775 20.0003 10.1 20.4779 10.1 21.067C10.1 21.6561 10.5775 22.1337 11.1666 22.1337H21.8333C22.4224 22.1337 22.9 21.6561 22.9 21.067C22.9 20.4779 22.4224 20.0003 21.8333 20.0003H11.1666Z" fill="#6F6F6F"/>
</svg>
