<svg width="33" height="32" viewBox="0 0 33 32" fill="none" xmlns="http://www.w3.org/2000/svg">
<path fill-rule="evenodd" clip-rule="evenodd" d="M11.1666 2.37305C11.7557 2.37305 12.2333 2.85061 12.2333 3.43971V4.37305H20.7666V3.43971C20.7666 2.85061 21.2442 2.37305 21.8333 2.37305C22.4224 2.37305 22.9 2.85061 22.9 3.43971V4.37305H28.5C29.0891 4.37305 29.5666 4.85061 29.5666 5.43971V25.6397C29.5666 27.8489 27.7758 29.6397 25.5666 29.6397H7.43329C5.22415 29.6397 3.43329 27.8489 3.43329 25.6397V5.43971C3.43329 4.85061 3.91085 4.37305 4.49996 4.37305H10.1V3.43971C10.1 2.85061 10.5775 2.37305 11.1666 2.37305ZM20.7666 6.50638V7.43971C20.7666 8.02882 21.2442 8.50638 21.8333 8.50638C22.4224 8.50638 22.9 8.02882 22.9 7.43971V6.50638H27.4333V9.70638H5.56662V6.50638H10.1V7.43971C10.1 8.02882 10.5775 8.50638 11.1666 8.50638C11.7557 8.50638 12.2333 8.02882 12.2333 7.43971V6.50638H20.7666ZM20.3222 22.8175C19.7331 22.8175 19.2556 23.2951 19.2556 23.8842C19.2556 24.4733 19.7331 24.9509 20.3222 24.9509H23.8778C24.4669 24.9509 24.9444 24.4733 24.9444 23.8842C24.9444 23.2951 24.4669 22.8175 23.8778 22.8175H20.3222Z" fill="#6F6F6F"/>
</svg>
