<svg width="54" height="54" viewBox="0 0 54 54" fill="none" xmlns="http://www.w3.org/2000/svg">
<rect width="54" height="54" rx="27" fill="#84C3EE"/>
<path fill-rule="evenodd" clip-rule="evenodd" d="M30.4345 17.4345C30.7469 17.1221 31.2535 17.1221 31.5659 17.4345L36.5659 22.4345C36.8783 22.7469 36.8783 23.2535 36.5659 23.5659L32.5666 27.5651L32.5659 27.5659L32.5651 27.5666L23.5659 36.5659C23.4159 36.7159 23.2124 36.8002 23.0002 36.8002H18.0002C17.5584 36.8002 17.2002 36.442 17.2002 36.0002V31.0002C17.2002 30.788 17.2845 30.5845 17.4345 30.4345L30.4345 17.4345ZM34.8688 23.0002L32.0002 25.8688L29.5659 23.4345C29.2535 23.1221 28.7469 23.1221 28.4345 23.4345C28.1221 23.7469 28.1221 24.2535 28.4345 24.5659L30.8688 27.0002L22.6688 35.2002H18.8002V31.3316L31.0002 19.1316L34.8688 23.0002ZM36.0002 35.2002H29.0002C28.5584 35.2002 28.2002 35.5584 28.2002 36.0002C28.2002 36.442 28.5584 36.8002 29.0002 36.8002H36.0002C36.442 36.8002 36.8002 36.442 36.8002 36.0002C36.8002 35.5584 36.442 35.2002 36.0002 35.2002Z" fill="white"/>
</svg>
