<svg width="93" height="15" viewBox="0 0 93 15" fill="none" xmlns="http://www.w3.org/2000/svg">
<path d="M1.442 2.008C1.106 2.008 0.952 1.896 0.952 1.644C0.952 1.42 1.092 1.294 1.4 1.294H5.502C5.782 1.294 5.992 1.35 6.104 1.462C6.202 1.588 6.216 1.756 6.146 1.966C5.922 2.596 5.516 3.254 4.928 3.926L7.084 5.62C7.364 5.858 7.392 6.082 7.182 6.292C6.944 6.502 6.72 6.488 6.496 6.264L4.508 4.36C3.458 5.424 2.254 6.25 0.91 6.838C0.714 6.922 0.574 6.894 0.504 6.74C0.42 6.6 0.49 6.46 0.686 6.348C1.806 5.69 2.73 4.976 3.458 4.206C4.172 3.45 4.704 2.722 5.068 2.008H1.442ZM9.45 1.35C9.45 1.084 9.366 0.888 9.226 0.776C9.058 0.677999 8.876 0.607999 8.666 0.551999C8.442 0.51 8.288 0.467999 8.232 0.426C8.162 0.397999 8.134 0.341999 8.134 0.271999C8.134 0.118 8.26 0.0339991 8.526 0.0339991H9.786C10.15 0.0339991 10.332 0.229999 10.332 0.607999V5.522C10.332 6.362 10.108 6.782 9.66 6.782H9.45V1.35ZM4.102 9.862H9.156V8.28H4.508C4.172 8.28 4.018 8.168 4.018 7.916C4.018 7.692 4.158 7.566 4.466 7.566H9.506C9.856 7.566 10.038 7.762 10.038 8.126V9.89C10.038 10.338 9.828 10.562 9.408 10.562H5.348V11.752C5.348 12.032 5.46 12.172 5.712 12.172H10.01C10.332 12.172 10.5 12.284 10.5 12.522C10.5 12.76 10.332 12.886 10.024 12.886H5.25C4.718 12.886 4.466 12.578 4.466 11.99V10.954C4.466 10.604 4.27 10.394 3.906 10.324C3.85 10.324 3.794 10.296 3.766 10.254C3.71 10.226 3.696 10.17 3.696 10.086C3.696 9.946 3.822 9.862 4.102 9.862ZM16.0525 3.982C16.0525 4.15 16.0385 4.304 16.0385 4.43H20.5465V1.602H16.0525V3.982ZM20.8405 0.888C21.2325 0.888 21.4285 1.098 21.4285 1.518V4.668C21.4285 4.99 21.2745 5.144 20.9945 5.144H15.8145C15.7025 5.312 15.5625 5.382 15.3805 5.382H15.1705V2.386C15.1705 2.064 15.1285 1.826 15.0445 1.686C14.9465 1.546 14.7785 1.448 14.5265 1.392C14.4425 1.378 14.3725 1.35 14.3445 1.294C14.3025 1.252 14.2885 1.196 14.2885 1.126C14.2885 0.972 14.3865 0.888 14.5825 0.888H20.8405ZM18.9785 7.538V9.05C18.9785 9.904 18.7685 10.324 18.3485 10.324H18.1105V7.538H12.8465C12.5385 7.538 12.3985 7.412 12.3985 7.16C12.3985 6.922 12.5385 6.796 12.8465 6.796H23.6965C24.0325 6.796 24.2005 6.922 24.2005 7.16C24.2005 7.412 24.0325 7.538 23.6965 7.538H18.9785ZM21.4705 12.69H16.5145C15.6045 12.69 15.1565 12.284 15.1565 11.5V10.52C15.1565 10.268 15.0725 10.086 14.9325 9.974C14.7785 9.89 14.5965 9.806 14.3725 9.736C14.1765 9.68 14.0645 9.638 14.0085 9.61C13.9525 9.582 13.9245 9.526 13.9245 9.442C13.9245 9.288 14.0505 9.204 14.3305 9.204H15.4925C15.8565 9.204 16.0385 9.428 16.0385 9.848V11.668C16.0385 11.864 16.1225 11.962 16.3185 11.962H21.4565C21.7925 11.962 21.9605 12.074 21.9605 12.326C21.9605 12.564 21.7925 12.69 21.4705 12.69ZM33.4451 3.674H37.7711V2.344C37.7711 2.12 37.7291 1.952 37.6731 1.868C37.5891 1.798 37.4771 1.742 37.3371 1.686C37.1971 1.658 37.1131 1.616 37.0571 1.574C36.9871 1.546 36.9591 1.504 36.9591 1.434C36.9591 1.294 37.0851 1.21 37.3371 1.21H38.1071C38.4571 1.21 38.6391 1.406 38.6391 1.784V6.936C38.6391 7.258 38.4851 7.412 38.2051 7.412H36.0491V9.722H40.9911C41.3271 9.722 41.5091 9.848 41.5091 10.086C41.5091 10.338 41.3271 10.464 40.9911 10.464H30.1551C29.8471 10.464 29.7071 10.338 29.7071 10.086C29.7071 9.848 29.8471 9.722 30.1551 9.722H35.1671V7.412H33.2071C33.0951 7.566 32.9551 7.636 32.7871 7.636H32.5771V2.792C32.5771 2.568 32.5491 2.4 32.4931 2.302C32.4231 2.218 32.3111 2.162 32.1711 2.106C32.0591 2.078 31.9751 2.05 31.9051 2.008C31.8211 1.98 31.7931 1.938 31.7931 1.854C31.7931 1.714 31.9191 1.63 32.1711 1.63H32.9551C33.2771 1.63 33.4451 1.826 33.4451 2.204V3.674ZM37.7711 4.388H33.4451V6.222C33.4451 6.404 33.4311 6.558 33.4171 6.698H37.7711V4.388ZM42.7046 4.766H47.1566V2.54H43.0266C42.6906 2.54 42.5366 2.428 42.5366 2.176C42.5366 1.952 42.6766 1.826 42.9846 1.826H47.5066C47.8426 1.826 48.0246 2.022 48.0246 2.386V4.78C48.0246 5.228 47.8146 5.452 47.4086 5.452H43.9506V7.328C43.9506 7.608 44.0626 7.734 44.3146 7.734H48.5286C48.8506 7.734 49.0186 7.86 49.0186 8.084C49.0186 8.336 48.8506 8.448 48.5426 8.448H43.8386C43.3206 8.448 43.0686 8.154 43.0686 7.552V5.858C43.0686 5.522 42.8726 5.326 42.5086 5.242C42.3686 5.214 42.2986 5.13 42.2986 4.99C42.2986 4.85 42.4246 4.766 42.7046 4.766ZM51.2586 1.364C51.2586 1.084 51.1746 0.888 51.0346 0.776C50.8666 0.677999 50.6846 0.607999 50.4746 0.551999C50.2506 0.51 50.0966 0.467999 50.0406 0.426C49.9706 0.397999 49.9426 0.341999 49.9426 0.271999C49.9426 0.118 50.0686 0.0339991 50.3346 0.0339991H51.5946C51.9586 0.0339991 52.1406 0.229999 52.1406 0.607999V10.814C52.1406 11.654 51.9166 12.074 51.4686 12.074H51.2586V5.2H49.1866C48.8506 5.2 48.6966 5.088 48.6966 4.836C48.6966 4.612 48.8506 4.486 49.1866 4.486H51.2586V1.364ZM55.1451 2.848C54.8091 2.848 54.6551 2.736 54.6551 2.484C54.6551 2.26 54.7951 2.134 55.1031 2.134H59.7231C60.0311 2.134 60.2131 2.218 60.2831 2.372C60.3391 2.54 60.3531 2.68 60.2971 2.82C59.8631 4.01 59.2471 5.102 58.4631 6.096C57.6651 7.104 56.6711 8 55.4951 8.77C55.3131 8.896 55.1731 8.882 55.0751 8.742C54.9631 8.616 55.0051 8.476 55.1871 8.322C56.0411 7.622 56.8111 6.824 57.4831 5.928C58.1411 5.032 58.7291 4.01 59.2611 2.848H55.1451ZM62.8731 1.35C62.8731 1.084 62.7891 0.902 62.6351 0.789999C62.4671 0.692 62.2711 0.607999 62.0471 0.551999C61.8511 0.51 61.7111 0.467999 61.6551 0.426C61.5851 0.397999 61.5571 0.341999 61.5571 0.271999C61.5571 0.118 61.6831 0.0339991 61.9351 0.0339991H63.2091C63.5731 0.0339991 63.7551 0.229999 63.7551 0.607999V4.584H65.8131C66.1491 4.584 66.3171 4.71 66.3171 4.948C66.3171 5.2 66.1491 5.312 65.8131 5.312H63.7551V10.814C63.7551 11.654 63.5171 12.074 63.0691 12.074H62.8731V1.35ZM67.8873 2.848C67.5513 2.848 67.3973 2.736 67.3973 2.484C67.3973 2.26 67.5373 2.134 67.8453 2.134H72.5213C72.8293 2.134 73.0113 2.218 73.0813 2.372C73.1373 2.54 73.1513 2.68 73.0953 2.82C72.6613 4.01 72.0453 5.102 71.2333 6.096C70.4073 7.104 69.3993 7.986 68.2233 8.756C68.0413 8.882 67.9013 8.882 67.8173 8.742C67.7193 8.63 67.7613 8.49 67.9433 8.336C68.7973 7.636 69.5673 6.838 70.2533 5.928C70.9253 5.032 71.5273 4.01 72.0593 2.848H67.8873ZM75.8953 1.35C75.8953 1.084 75.8113 0.888 75.6713 0.776C75.5033 0.677999 75.3213 0.607999 75.1113 0.551999C74.8873 0.51 74.7333 0.467999 74.6773 0.426C74.6073 0.397999 74.5793 0.341999 74.5793 0.271999C74.5793 0.118 74.7053 0.0339991 74.9713 0.0339991H76.2313C76.5953 0.0339991 76.7773 0.229999 76.7773 0.607999V10.814C76.7773 11.654 76.5533 12.074 76.1053 12.074H75.8953V1.35Z" fill="#84C3EE"/>
<path fill-rule="evenodd" clip-rule="evenodd" d="M83.9146 2.38418L88.7154 7.17918C88.8904 7.35418 88.8904 7.64001 88.7154 7.81501L83.9146 12.6158C83.7396 12.7908 83.4537 12.7908 83.2787 12.6158C83.1037 12.4408 83.1037 12.155 83.2787 11.98L87.7587 7.50001L83.2787 3.02001C83.1037 2.84501 83.1037 2.55918 83.2787 2.38418C83.4537 2.20918 83.7396 2.20918 83.9146 2.38418Z" fill="#84C3EE"/>
</svg>
