<svg width="33" height="32" viewBox="0 0 33 32" fill="none" xmlns="http://www.w3.org/2000/svg">
<path d="M15.7913 3.20266C16.1954 2.84342 16.8045 2.84342 17.2086 3.20266L29.2086 13.8693C29.4363 14.0717 29.5666 14.3619 29.5666 14.6666V27.9999C29.5666 28.589 29.0891 29.0666 28.5 29.0666H20.5C19.9109 29.0666 19.4333 28.589 19.4333 27.9999V21.3332C19.4333 19.6557 18.1775 18.3999 16.5 18.3999C14.8224 18.3999 13.5666 19.6557 13.5666 21.3332V27.9998C13.5666 28.5889 13.0891 29.0666 12.5 29.0666H4.49996C3.91085 29.0666 3.43329 28.589 3.43329 27.9999V14.6666C3.43329 14.3619 3.56358 14.0717 3.7913 13.8693L15.7913 3.20266Z" fill="#C2C2C2"/>
</svg>
