<svg width="32" height="32" viewBox="0 0 32 32" fill="none" xmlns="http://www.w3.org/2000/svg">
<path d="M19.3947 6.60651C18.5521 3.13051 13.4481 3.13051 12.6054 6.60651ZM19.3947 6.60651C21.4841 4.46251 25.2347 6.59718 25.3334 9.27851ZM25.3334 9.27851C26.6667 9.50251 29.3334 10.7518 29.3334 13.9612C29.3334 16.8585 25.8574 19.9198 22.4227 22.3532C21.6467 22.9025 21.2587 23.1772 21.0094 23.3772C20.3116 23.9214 19.6924 24.5594 19.1694 25.2732C18.9774 25.5265 19.3973 25.9027 19 26.5L20.6 28.6C20.3729 28.9416 17.9 29 17.5 28.7C17.1385 28.8938 16.4102 28.5 16 28.5C15.5898 28.5 14.8615 28.7938 14.5 28.6C14.1 28.9 11.6271 29.1416 11.4 28.8L13 26.5C12.7484 26.1093 13.1048 25.6494 12.8321 25.2732C12.3082 24.5592 11.6881 23.9212 10.9894 23.3772C10.7414 23.1772 10.3534 22.9025 9.57742 22.3532C6.14275 19.9198 2.66675 16.8598 2.66675 13.9598C2.66675 10.7505 5.33341 9.50118 6.66675 9.27718M12.6054 6.60651C10.5161 4.46251 6.76541 6.59718 6.66675 9.27984Z" fill="#FFA7AA"/>
<path d="M6.66675 9.3332C6.66675 7.85432 7.85441 6.64957 9.33314 6.62845L16.0001 6.5332L22.667 6.62845C24.1457 6.64957 25.3334 7.85432 25.3334 9.3332V9.3332H6.66675V9.3332Z" fill="#FFA7AA"/>
<path d="M8.79326 8.96089C8.43901 9.33628 8.0446 10.5776 9.30106 12.5397" stroke="white" stroke-width="1.2" stroke-linecap="round"/>
<path d="M5.56747 10.5877C5.09016 10.7172 3.97862 11.4675 3.35089 13.4333" stroke="white" stroke-width="0.266667" stroke-linecap="round"/>
<path d="M10.7336 6.82083C10.3108 6.81193 9.06699 6.88744 8.20032 8.15412" stroke="white" stroke-width="0.266667" stroke-linecap="round"/>
<path d="M14.0683 5.28679C14.4634 5.01675 15.7333 3.99977 17.5999 5.06645" stroke="white" stroke-width="0.266667" stroke-linecap="round"/>
<path d="M21.1947 6.74074C21.6715 6.78159 23.2983 6.7975 24.069 8.80457" stroke="white" stroke-width="0.266667" stroke-linecap="round"/>
<path d="M27.0793 11.1871C27.4247 11.4709 28.394 12.3989 28.1966 14.2977" stroke="white" stroke-width="0.266667" stroke-linecap="round"/>
<path d="M9.98735 14.0025C9.96326 14.0127 9.94537 14.053 10.0666 14.1333" stroke="white" stroke-width="1.2" stroke-linecap="round"/>
<path d="M19.3947 6.60651C19.4947 7.01985 19.5214 7.45851 19.4601 7.90785L18.3641 15.9665M19.3947 6.60651C18.5521 3.13051 13.4481 3.13051 12.6054 6.60651M19.3947 6.60651C21.4841 4.46251 25.2347 6.59718 25.3334 9.27851M12.6054 6.60651C12.5054 7.01985 12.4801 7.45851 12.5401 7.90785L13.6361 15.9665M12.6054 6.60651C10.5161 4.46251 6.76541 6.59718 6.66675 9.27985C6.57608 11.7332 8.25342 15.0265 9.73608 17.3052M25.3334 9.27851C26.6667 9.50251 29.3334 10.7518 29.3334 13.9612C29.3334 16.8585 25.8574 19.9198 22.4227 22.3532C21.6467 22.9025 21.2587 23.1772 21.0094 23.3772C20.3116 23.9214 19.6924 24.5594 19.1694 25.2732V25.2732C18.6806 25.9182 18.7995 26.8337 19.3775 27.4003L19.6956 27.7121C20.458 28.4595 20.26 29.1545 19.1934 29.1082C17.8808 29.0513 16.2926 28.9 16 28.9C15.6638 28.9 13.7904 29.1713 12.599 29.197C11.9065 29.212 11.8322 28.7037 12.2594 28.1585L12.7589 27.5211C13.2736 26.8643 13.3218 25.9489 12.8321 25.2732V25.2732C12.3082 24.5592 11.6881 23.9212 10.9894 23.3772C10.7414 23.1772 10.3534 22.9025 9.57742 22.3532C6.14275 19.9198 2.66675 16.8598 2.66675 13.9598C2.66675 10.7505 5.33341 9.50118 6.66675 9.27718M25.3334 9.27851C25.4241 11.7318 23.7467 15.0238 22.2641 17.3025" stroke="#F69394" stroke-linecap="round" stroke-linejoin="round"/>
</svg>
