<svg width="24" height="24" viewBox="0 0 24 24" fill="none" xmlns="http://www.w3.org/2000/svg">
<path fill-rule="evenodd" clip-rule="evenodd" d="M15.4345 2.43451C15.7469 2.12209 16.2535 2.12209 16.5659 2.43451L21.5659 7.43451C21.8783 7.74693 21.8783 8.25346 21.5659 8.56588L17.5666 12.5651L17.5659 12.5659L17.5651 12.5666L8.56588 21.5659C8.41585 21.7159 8.21237 21.8002 8.0002 21.8002H3.0002C2.55837 21.8002 2.2002 21.442 2.2002 21.0002V16.0002C2.2002 15.788 2.28448 15.5845 2.43451 15.4345L15.4345 2.43451ZM19.8688 8.0002L17.0002 10.8688L14.5659 8.43451C14.2535 8.12209 13.7469 8.12209 13.4345 8.43451C13.1221 8.74693 13.1221 9.25346 13.4345 9.56588L15.8688 12.0002L7.66882 20.2002H3.8002V16.3316L16.0002 4.13157L19.8688 8.0002ZM21.0002 20.2002H14.0002C13.5584 20.2002 13.2002 20.5584 13.2002 21.0002C13.2002 21.442 13.5584 21.8002 14.0002 21.8002H21.0002C21.442 21.8002 21.8002 21.442 21.8002 21.0002C21.8002 20.5584 21.442 20.2002 21.0002 20.2002Z" fill="#5C5C5C"/>
</svg>
